<?xml version="1.0" encoding="UTF-8" standalone="no"?>
<svg
   xmlns:dc="http://purl.org/dc/elements/1.1/"
   xmlns:cc="http://creativecommons.org/ns#"
   xmlns:rdf="http://www.w3.org/1999/02/22-rdf-syntax-ns#"
   xmlns:svg="http://www.w3.org/2000/svg"
   xmlns="http://www.w3.org/2000/svg"
   xmlns:sodipodi="http://sodipodi.sourceforge.net/DTD/sodipodi-0.dtd"
   xmlns:inkscape="http://www.inkscape.org/namespaces/inkscape"
   inkscape:version="1.0 (4035a4fb49, 2020-05-01)"
   sodipodi:docname="jupiter.svg"
   version="1.1"
   width="512"
   viewBox="0 0 512.001 512.001"
   height="512"
   enable-background="new 0 0 512.001 512.001"
   id="Capa_1">
  <metadata
     id="metadata65">
    <rdf:RDF>
      <cc:Work
         rdf:about="">
        <dc:format>image/svg+xml</dc:format>
        <dc:type
           rdf:resource="http://purl.org/dc/dcmitype/StillImage" />
      </cc:Work>
    </rdf:RDF>
  </metadata>
  <defs
     id="defs63" />
  <sodipodi:namedview
     inkscape:current-layer="g56"
     inkscape:window-maximized="1"
     inkscape:window-y="-8"
     inkscape:window-x="76"
     inkscape:cy="256"
     inkscape:cx="256"
     inkscape:zoom="1.7382812"
     showgrid="false"
     id="namedview61"
     inkscape:window-height="1052"
     inkscape:window-width="1836"
     inkscape:pageshadow="2"
     inkscape:pageopacity="0"
     guidetolerance="10"
     gridtolerance="10"
     objecttolerance="10"
     borderopacity="1"
     bordercolor="#666666"
     pagecolor="#ffffff" />
  <g
     id="g58">
    <g
       id="g42">
      <path
         id="path2"
         fill="#e27c48"
         d="m500.45 211.121c-15.03 2.59-30.08 14.8-45.25 16.1-43.92 3.73-88.29-.26-132.31.99-44.03 1.24-88.1 7.73-132.14 6.48-44.02-1.24-87.65-10.21-131.56-13.95-15.64-1.33-31.35-12-47.08-12.6 1.81-9.277 25.229-13.696 28.039-22.572 3.757-11.866-12.712-28.02-7.289-39.038 73.45 2.27 146.98-7.75 220.43-10.08 22.34-.71 44.66.91 66.46 4.68 18.62 3.21 37.6 4.83 56.63 4.83 9.55 0 19.11-.4 28.65-1.23 24.9-2.14 49.75 5.46 74.59 2.77 9.66 19.87 16.75 41.22 20.83 63.62z" />
      <path
         id="path4"
         fill="#df6937"
         d="m114.5 148.111c-4.87 12.87-8.7 26.24-11.39 40.03-1.74 8.88-3 17.93-3.75 27.12-13.38-1.75-26.76-3.38-40.17-4.52-15.64-1.33-31.35-2-47.08-2.6 4.23-21.68 11.27-42.35 20.75-61.61 27.21.84 54.42 1.37 81.64 1.58z" />
      <path
         id="path6"
         fill="#efedef"
         d="m504.5 256.001c0 3.24-.06 6.46-.18 9.67-16.31 2.89-32.65 15.37-49.12 16.78-43.92 3.73-88.29-.26-132.31.99-44.03 1.24-88.1 7.73-132.14 6.48-44.02-1.24-87.65-10.21-131.56-13.95-17.14-1.46-34.35-12.12-51.58-12.76-.08-2.39 25.25-18.651 25.25-21.061 0-16.37-23.78-18.519-20.75-34.009 15.73.6 31.44 1.27 47.08 2.6 43.91 3.74 87.54 12.71 131.56 13.95 44.04 1.25 88.11-5.24 132.14-6.48 44.02-1.25 88.39 2.74 132.31-.99 15.17-1.3 30.22-3.51 45.25-6.1 2.66 14.56 4.05 29.56 4.05 44.88z" />
      <path
         id="path8"
         fill="#f3d332"
         d="m479.62 147.501c-24.84 2.69-49.69 5.09-74.59 7.23-9.54.83-19.1 1.23-28.65 1.23-19.03 0-38.01-1.62-56.63-4.83-21.8-3.77-44.12-5.39-66.46-4.68-73.45 2.33-146.98 2.35-220.43.08 7.756-15.792 47.303-9.057 58.097-22.74 8.147-10.327-13.063-41.572-3.407-50.48 28.99 2.3 54.45-5.87 70.84-4.73 8.96.62 17.47 4.71 23.01 11.78 4.26 5.46 11.76 9.08 20.3 9.08 7.95 0 15-3.14 19.38-7.98 6.18-6.84 14.73-11 23.95-10.96 60.22.27 120.44 8.23 180.55 3.85 22.21 20.75 40.61 45.52 54.04 73.15z" />
      <path
         id="path10"
         fill="#d16161"
         d="m425.581 74.351c-60.11 4.38-120.33 6.42-180.55 6.15-9.22-.04-17.77 4.12-23.95 10.96-4.38 4.84-11.43 7.98-19.38 7.98-8.54 0-16.04-3.62-20.3-9.08-5.54-7.07-14.05-11.16-23.01-11.78-16.39-1.14-41.85-2.97-70.84-5.27 16.555-15.27 44.19-10.955 64.429-21.31 30.23-15.469 55.044-42.29 90.87-44.158 4.355-.227 8.739-.342 13.151-.342 65.549 0 125.169 25.39 169.58 66.85z" />
      <path
         id="path12"
         fill="#e3e0e4"
         d="m100.91 270.691c-13.89-1.82-27.79-3.53-41.72-4.72-17.14-1.46-34.35-2.12-51.58-2.76-.08-2.39-.11-4.8-.11-7.21 0-16.37 1.58-32.37 4.61-47.86 15.73.6 31.44 1.27 47.08 2.6 13.41 1.14 26.79 2.77 40.17 4.52-.57 6.84-.86 13.76-.86 20.74 0 2.41.03 4.82.11 7.21.26 9.3 1.04 18.47 2.3 27.48z" />
      <path
         id="path14"
         fill="#ecc52e"
         d="m154.91 78.341c-12.11 14.74-22.56 30.9-31.05 48.19-3.45 7.01-6.58 14.21-9.36 21.58-27.22-.21-54.43-.74-81.64-1.58 13.61-27.71 32.24-52.51 54.69-73.22 27.01 2.14 50.96 3.88 67.36 5.03z" />
      <path
         id="path16"
         fill="#ca4646"
         d="m248.97 7.601c-26.08 11.2-49.85 26.74-70.42 45.71-8.44 7.78-16.34 16.15-23.64 25.03-16.4-1.15-40.35-2.89-67.36-5.03 42.69-39.37 99.19-63.98 161.42-65.71z" />
      <path
         id="path18"
         fill="#d16161"
         d="m290.958 145.214c-.426 12.553 9.406 17.234 25.702 17.787 15.493.526 26.133-3.886 27.744-15.538.083-.604.136-1.215.157-1.834.426-12.553-12.439-23.177-28.734-23.731-6.742-.229-13.015 1.302-18.083 4.064-7.182 3.916-6.536 11.892-6.786 19.252z" />
      <path
         id="path20"
         fill="#ca4646"
         d="m344.39 147.461c-1.6 11.65-14.61 20.42-30.11 19.9-16.29-.56-29.16-11.18-28.73-23.74.3-8.95 7.27-16.46 17.16-19.83-.09.6-.14 1.21-.16 1.83-.43 12.56 12.44 23.18 28.73 23.74 4.68.16 9.13-.53 13.11-1.9z" />
      <path
         id="path22"
         fill="#e5936a"
         d="m504.32 265.671c-1.19 31.08-8.09 60.69-19.68 87.83h-.01c-23.86 2.3-47.72 14.23-71.63 15.79-19.36 1.27-38.72-4.32-53.94-16.36-12.56-9.93-29.23-15.92-47.57-15.92-.95 0-1.93.01-2.89.05-17.58.6-34.26 6.73-46.94 17.24-.06.06-.14.12-.2.18-15.1 12.58-34.04 19.65-53.68 19.21-60.37-1.36-120.67-15.05-180.8-21.08-5.057-11.974 16.316-27.781 13.169-40.625-4.11-16.772-32.035-30.857-32.539-48.775 17.23.64 34.44 1.3 51.58 2.76 43.91 3.74 87.54 12.71 131.56 13.95 44.04 1.25 88.11-5.24 132.14-6.48 44.02-1.25 88.39 2.74 132.31-.99 16.47-1.41 32.81-3.89 49.12-6.78z" />
      <path
         id="path24"
         fill="#e27c48"
         d="m132.05 360.761c-35.07-1.93-70.1-4.64-105.07-8.15-11.66-27.61-18.48-57.76-19.37-89.4 17.23.64 34.44 1.3 51.58 2.76 13.93 1.19 27.83 2.9 41.72 4.72 3.02 21.66 8.84 42.42 17.07 61.92 4.1 9.72 8.81 19.11 14.07 28.15z" />
      <path
         id="path26"
         fill="#ecc52e"
         d="m86.107 270.691c-.617 10.42 4.613 14.828 18.141 15.629 10.145.601 19.136.196 23.255-6.356 1.373-2.184 2.206-4.625 2.36-7.23.617-10.42-9.849-19.517-23.376-20.318-2.559-.152-5.044.005-7.396.428-10.081 1.815-12.484 9.398-12.984 17.847z" />
      <path
         id="path28"
         fill="#dbb72b"
         d="m127.64 279.721c-4.04 6.69-13.12 11.04-23.39 10.43-13.53-.8-23.99-9.9-23.37-20.32.49-8.45 8.13-15.18 18.21-16.99-1.29 2.12-2.06 4.48-2.21 6.99-.62 10.42 9.84 19.52 23.37 20.32 2.56.15 5.05-.01 7.39-.43z" />
      <path
         id="path30"
         fill="#ecc52e"
         d="m484.63 353.501c-8.97 21.03-20.76 40.57-34.9 58.15-13.75 1.13-27.49 12.13-41.24 13.02-17.33 1.12-34.02 7.6-47.04 19.08-.52.46-1.05.91-1.6 1.36-12.68 10.51-29.35 16.63-46.93 17.24-.98.03-1.94.05-2.89.05-18.48 0-35.24-6.07-47.82-16.12-13.66-10.91-30.61-16.85-48.08-17.18-50.76-.95-101.52-13.57-152.16-17.84h-.01c-7.088-8.85 11.606-27.774 5.763-37.551-5.862-9.81-36.256-10.476-40.743-21.099 60.13 6.03 120.43 9.72 180.8 11.08 19.64.44 38.58-6.63 53.68-19.21.06-.06.14-.12.2-.18 12.68-10.51 29.36-16.64 46.94-17.24.96-.04 1.94-.05 2.89-.05 18.34 0 35.01 5.99 47.57 15.92 15.22 12.04 34.58 17.63 53.94 16.36 23.91-1.56 47.77-3.49 71.63-5.79z" />
      <path
         id="path32"
         fill="#dbb72b"
         d="m177.96 418.131c-38.7-1.32-77.38-3.61-115.99-6.87h-.01c-14.2-17.73-26.02-37.44-34.98-58.65 34.97 3.51 70 6.22 105.07 8.15 6.22 10.7 13.21 20.89 20.91 30.5h.01c7.66 9.56 16.02 18.55 24.99 26.87z" />
      <path
         id="path34"
         fill="#e27c48"
         d="m353.666 388.227c.072 2.083-.158 4.127-.662 6.112-3.528 13.888-18.438 18.672-39.173 19.386-23.697.816-39.235-5.03-39.809-21.695-.388-11.277 1.898-22.26 14.749-27.888 6.141-2.69 13.286-4.35 20.949-4.614 23.697-.816 43.372 12.033 43.946 28.699z" />
      <path
         id="path36"
         fill="#df6937"
         d="m352.74 395.271c-4.03 13.44-20.67 23.91-40.94 24.61-23.7.81-43.38-12.03-43.95-28.7-.39-11.28 8.07-21.41 20.92-27.04-.68 2.27-1 4.63-.92 7.04.57 16.67 20.25 29.51 43.95 28.7 7.66-.27 14.8-1.93 20.94-4.61z" />
      <path
         id="path38"
         fill="#e5936a"
         d="m449.73 411.651c-25.295 31.442-58.086 56.596-95.66 72.75-30.088 12.936-63.438 5.919-98.265 5.919-78.5 0-106.028-7.5-151.558-64.34 38.611 3.256 35.015-9.166 73.713-7.838 12.056.414 24.113.734 36.17.959 17.47.33 34.42 6.27 48.08 17.18 12.58 10.05 29.34 16.12 47.82 16.12.95 0 1.91-.02 2.89-.05 17.58-.61 34.25-6.73 46.93-17.24.55-.45 1.08-.9 1.6-1.36 13.02-11.48 29.71-17.96 47.04-19.08 13.75-.89 27.49-1.89 41.24-3.02z" />
      <path
         id="path40"
         fill="#e27c48"
         d="m354.07 484.401c-30.09 12.93-63.24 20.1-98.07 20.1-78.5 0-148.5-36.4-194.03-93.24 38.61 3.26 77.29 5.55 115.99 6.87 44.34 41.19 103.75 66.37 169.04 66.37 2.36 0 4.72-.03 7.07-.1z" />
    </g>
    <g
       id="g56">
      <path
         id="path44"
         d="m511.809 265.512c5.566-147.414-113.579-265.882-255.809-265.511-68.061-.036-132.904 26.772-181.02 74.98-48.351 48.352-74.98 112.64-74.98 181.02 0 34.835 7.019 68.544 20.038 99.473l.03.072c22.535 53.489 63.036 98.646 116.335 126.858 3.661 1.938 8.2.54 10.137-3.12 1.938-3.661.541-8.2-3.12-10.138-24.327-12.876-45.817-29.506-63.928-48.956 44.749 3.418 89.909 5.574 134.502 6.411 15.895.295 31.354 5.813 43.53 15.537 14.345 11.456 32.991 17.765 52.504 17.765 1.035 0 2.083-.023 3.149-.059 19.24-.664 37.518-7.398 51.431-18.936 10.876-10.166 27.77-17.9 44.363-18.75 7.606-.491 15.268-1.027 22.922-1.595-44.006 47.008-106.573 76.438-175.893 76.438-27.989 0-55.409-4.753-81.499-14.126-3.899-1.401-8.194.625-9.594 4.522-1.401 3.898.624 8.194 4.522 9.594 27.722 9.96 56.848 15.01 86.571 15.01 68.38 0 132.668-26.629 181.02-74.98 45.884-45.884 72.188-106.122 74.755-170.586.031-.304.041-.612.034-.923zm-32.441 80.942c-22.101 2.091-44.558 3.898-66.852 5.353-17.956 1.172-35.287-4.066-48.801-14.763-14.306-11.308-32.853-17.536-52.225-17.536-1.285 0-2.281.019-3.146.059-19.229.652-37.508 7.386-51.465 18.96-13.107 11.162-31.7 18.203-48.935 17.663-58.442-1.311-117.542-4.893-175.752-10.616-9.385-23.489-15.119-48.608-16.722-74.559 13.719.528 28.579 1.195 43.079 2.432 4.798.408 9.824.9 15.218 1.488 2.376 12.08 14.695 21.793 30.038 22.702 11.034.591 24.69-3.787 30.767-14.963 17.72 2.207 36.587 4.197 55.966 4.745 25.001.754 54.076-1.289 79.544-3.286 17.409-1.329 35.412-2.703 53.021-3.201 17.612-.499 35.669-.144 53.132.2 26.073.513 53.037 1.042 79.598-1.21 12.156-1.039 25.194-2.734 40.448-5.264-1.937 25.21-7.785 49.338-16.913 71.796zm-361.687-67.005c-3.426 2.329-8.158 3.5-12.986 3.215-9.218-.546-16.697-6.218-16.333-12.387.366-6.168 8.463-10.924 17.681-10.373 9.218.546 16.697 6.219 16.332 12.388-.212 3.594-3.032 6.027-4.694 7.157zm289.061-211.336c-53.547 3.475-107.843 5.129-161.677 4.887-.058 0-.115 0-.173 0-10.951 0-21.649 4.887-29.381 13.431-3.118 3.45-8.28 5.51-13.809 5.51-5.893 0-11.41-2.374-14.399-6.198-6.669-8.521-17.018-13.858-28.389-14.642-12.729-.883-31.161-2.201-52.588-3.847 41.141-32.693 93.164-52.253 149.674-52.253 57.002 0 109.434 19.905 150.742 53.112zm-316.327 12.946c27.733 2.192 51.864 3.924 67.464 5.006 7.14.492 13.559 3.744 17.609 8.919 5.852 7.486 15.652 11.956 26.214 11.956 9.845 0 18.934-3.81 24.935-10.449 4.985-5.508 11.472-8.518 18.36-8.491 59.186.265 118.937-1.74 177.647-5.935 17.946 17.201 33.25 37.139 45.22 59.143-20.895 2.189-42.194 4.222-63.473 6.055-17.162 1.481-34.961 1.568-52.447.269 1.97-18.213-17.071-32.953-35.862-33.129-15.698-.837-33.955 8.353-37.507 24.728-33.485-.907-70.189 1.59-104.628 1.437-4.142.038-7.469 3.426-7.431 7.568.038 4.119 3.388 7.432 7.498 7.432 34.98.206 70.502-2.475 106.104-1.329 5.013 12.165 19.429 20.119 33.912 20.612 11.367.156 23.547-3.334 31.612-12.801 18.876 1.726 39.849 1.916 60.037.156 23.279-2.005 46.577-4.249 69.355-6.674 7.214 15.665 12.79 32.23 16.52 49.476-13.91 2.257-25.822 3.781-36.991 4.738-11.273.957-23.603 1.475-37.69 1.584-4.142.033-7.474 3.417-7.441 7.559.032 4.122 3.384 7.441 7.499 7.441h.06c14.476-.113 27.181-.649 38.847-1.639 11.643-.997 24.013-2.582 38.44-4.929 1.791 11.823 2.724 23.923 2.724 36.237 0 1.115-.027 2.224-.042 3.336-16.223 2.758-29.826 4.567-42.395 5.641-25.776 2.187-52.341 1.664-78.03 1.159-17.641-.347-35.879-.706-53.851-.197-17.968.508-36.152 1.896-53.738 3.239-25.626 1.956-52.126 3.977-77.978 3.248-18.554-.525-36.778-2.432-53.949-4.562-2.262-12.189-14.645-22.02-30.087-22.935-13.614-.812-25.671 5.546-30.866 15.167-5.769-.634-11.124-1.16-16.24-1.595-15.193-1.297-30.651-1.975-44.824-2.516.001-13.658 1.161-27.048 3.356-40.091 13.064.521 26.705 1.175 40.195 2.324 17.561 1.494 35.459 3.884 52.769 6.195 25.855 3.453 52.591 7.023 79.222 7.777 25.001.754 54.076-1.29 79.544-3.286 17.409-1.329 35.412-2.703 53.021-3.201 17.615-.499 35.67-.144 53.134.2l5.539.108c4.1.104 7.563-3.213 7.643-7.355.079-4.141-3.214-7.563-7.355-7.642l-5.531-.108c-17.64-.347-35.881-.706-53.853-.197-17.968.508-36.152 1.896-53.739 3.239-25.625 1.957-52.122 3.982-77.978 3.248-25.846-.731-52.187-4.249-77.66-7.65-17.484-2.335-35.564-4.75-53.482-6.274-12.961-1.104-25.971-1.755-38.485-2.268 3.822-16.313 9.315-31.987 16.272-46.845 33.594.992 67.574 1.524 101.103 1.555h.007c4.139 0 7.496-3.354 7.5-7.493.004-4.142-3.351-7.503-7.493-7.507-31.022-.028-62.424-.499-93.554-1.355 12.048-21.697 27.345-41.353 45.238-58.299zm202.63 62.821c1.703-10.538 10.969-13.746 21.49-14.503 9.566.542 21.087 3.801 22.529 15.998-.169 4.983-3.871 8.366-6.063 9.939-4.317 3.098-10.322 4.758-16.463 4.546-9.362-.885-20.033-4.111-21.493-15.98zm114.962 263.309c-19.118 1.173-38.893 9.21-52.94 22.146-11.404 9.457-26.465 14.968-42.399 15.518-.89.03-1.77.05-2.639.05-16.125 0-31.446-5.145-43.144-14.485-14.745-11.776-33.43-18.457-52.61-18.813-49.266-.925-99.223-3.477-148.548-7.565-10.339-13.281-19.245-27.606-26.585-42.735 55.861 5.287 112.462 8.626 168.466 9.882 20.103.568 42.401-7.103 58.844-21.109 11.417-9.467 26.476-14.978 42.485-15.521.852-.038 1.712-.046 2.554-.046 16.011 0 31.254 5.08 42.919 14.3 16.43 13.003 37.409 19.383 59.084 17.966 19.596-1.278 39.316-2.831 58.819-4.603-7.41 15.036-16.332 29.199-26.585 42.274-12.533 1.008-25.202 1.932-37.721 2.741z" />
      <path
         id="path46"
         d="m329.019 354.233c-3.993-1.086-8.118 1.273-9.204 5.271-1.087 3.997 1.273 8.118 5.271 9.204 12.512 3.4 20.788 11.163 21.085 19.777.19 5.55-2.956 11.065-8.86 15.529-6.687 5.056-15.839 8.028-25.771 8.37-9.938.346-19.267-1.995-26.286-6.578-6.197-4.047-9.716-9.333-9.907-14.884-.295-8.573 7.241-16.82 19.199-21.011 3.909-1.37 5.968-5.65 4.598-9.559-1.371-3.909-5.649-5.968-9.559-4.598-18.282 6.408-29.755 20.414-29.229 35.684.363 10.57 6.293 20.133 16.696 26.927 8.991 5.872 20.492 9.051 32.609 9.051.796 0 1.594-.014 2.394-.041 12.991-.447 25.173-4.495 34.301-11.396 9.911-7.493 15.169-17.441 14.805-28.011-.527-15.33-13.144-28.573-32.142-33.735z" />
    </g>
  </g>
</svg>
