<?xml version="1.0" encoding="UTF-8" standalone="no"?>
<svg
   xmlns:dc="http://purl.org/dc/elements/1.1/"
   xmlns:cc="http://creativecommons.org/ns#"
   xmlns:rdf="http://www.w3.org/1999/02/22-rdf-syntax-ns#"
   xmlns:svg="http://www.w3.org/2000/svg"
   xmlns="http://www.w3.org/2000/svg"
   xmlns:sodipodi="http://sodipodi.sourceforge.net/DTD/sodipodi-0.dtd"
   xmlns:inkscape="http://www.inkscape.org/namespaces/inkscape"
   viewBox="0 0 128 128"
   width="512"
   height="512"
   version="1.1"
   id="svg110"
   sodipodi:docname="mercury.svg"
   inkscape:version="1.0 (4035a4fb49, 2020-05-01)">
  <metadata
     id="metadata116">
    <rdf:RDF>
      <cc:Work
         rdf:about="">
        <dc:format>image/svg+xml</dc:format>
        <dc:type
           rdf:resource="http://purl.org/dc/dcmitype/StillImage" />
        <dc:title>1</dc:title>
      </cc:Work>
    </rdf:RDF>
  </metadata>
  <defs
     id="defs114" />
  <sodipodi:namedview
     inkscape:document-rotation="0"
     pagecolor="#ffffff"
     bordercolor="#666666"
     borderopacity="1"
     objecttolerance="10"
     gridtolerance="10"
     guidetolerance="10"
     inkscape:pageopacity="0"
     inkscape:pageshadow="2"
     inkscape:window-width="1836"
     inkscape:window-height="1052"
     id="namedview112"
     showgrid="false"
     inkscape:zoom="0.30728761"
     inkscape:cx="35.961402"
     inkscape:cy="-336.375"
     inkscape:window-x="76"
     inkscape:window-y="-8"
     inkscape:window-maximized="1"
     inkscape:current-layer="svg110" />
  <title
     id="title2">1</title>
  <g
     transform="matrix(0.99217139,0,0,0.99217139,-0.00398565,-0.0039088)"
     id="icon">
    <path
       d="m 127,64 a 63.037,63.037 0 0 1 -85.862,58.72 q -2.7,-1.05 -5.276,-2.342 A 63.092,63.092 0 0 1 3.775,45.447 Q 4.5,43.1 5.395,40.834 A 63.02,63.02 0 0 1 113.633,25.2 q 1.279,1.631 2.449,3.351 A 62.7,62.7 0 0 1 127,64 Z"
       fill="#d0aa79"
       id="path55" />
    <path
       d="m 127,64 a 63.026,63.026 0 0 1 -85.86,58.719 c -1.8,-0.693 -3.565,-1.484 -5.276,-2.34 a 63.2,63.2 0 0 1 -23.111,-19.73 c 0.184,0.1 0.368,0.2 0.563,0.292 1.712,0.856 3.467,1.647 5.277,2.34 A 63.01,63.01 0 0 0 93.527,9.1 Q 93.121,8.5 92.682,7.9 a 63.39,63.39 0 0 1 20.955,17.292 c 0.845,1.083 1.668,2.21 2.449,3.348 A 62.719,62.719 0 0 1 127,64 Z"
       fill="#bf9a71"
       id="path57" />
    <path
       d="m 64,128 a 63.668,63.668 0 0 1 -23.226,-4.346 c -1.825,-0.71 -3.63,-1.511 -5.36,-2.38 A 64.093,64.093 0 0 1 2.819,45.153 C 3.3,43.6 3.852,42.021 4.464,40.467 A 64.021,64.021 0 0 1 114.42,24.578 c 0.866,1.1 1.7,2.25 2.489,3.405 A 64.005,64.005 0 0 1 64,128 Z M 64,2 A 61.694,61.694 0 0 0 6.324,41.2 c -0.594,1.505 -1.13,3.033 -1.593,4.54 a 62.091,62.091 0 0 0 31.579,73.744 c 1.677,0.842 3.423,1.617 5.19,2.3 a 62.013,62.013 0 0 0 73.756,-92.68 c -0.761,-1.119 -1.571,-2.228 -2.41,-3.3 A 61.666,61.666 0 0 0 64,2 Z"
       fill="#2f3a5a"
       id="path59"
       style="fill:#000000;fill-opacity:1;stroke:#000000;stroke-opacity:1" />
    <path
       d="m 111.1,70.488 a 3.483,3.483 0 0 0 -2.187,-1.528 c -2.177,-0.518 -4.174,0.443 -6.136,1.233 -10.49,4.226 -22.165,4 -33.47,3.715 L 35.53,73.051 a 3.62,3.62 0 0 0 -2.965,1.359 2.111,2.111 0 0 0 -0.509,1.468 3.878,3.878 0 0 0 2.59,3.037 11.414,11.414 0 0 0 4.146,0.526 l 17.3,0.054 a 11.868,11.868 0 0 1 4.133,0.5 4.027,4.027 0 0 1 2.7,2.94 c 0.155,1.017 -0.225,2.056 -0.086,3.075 a 4.117,4.117 0 0 0 2.6,3.031 11.313,11.313 0 0 0 4.1,0.656 109.684,109.684 0 0 0 30.962,-3.551 2.047,2.047 0 0 0 1.548,-1.938 c 0.008,-1.892 -2.6,-1.9 -3.791,-3.155 -1.142,-1.208 -0.562,-3.351 0.77,-4.346 a 7.56,7.56 0 0 1 4.772,-1.077 14.192,14.192 0 0 0 4.946,-0.327 c 1.934,-0.657 3.612,-2.758 2.354,-4.815 z"
       fill="#ad8a68"
       id="path61" />
    <path
       d="m 72.674,90.744 q -1.579,0 -3.159,-0.045 a 12.124,12.124 0 0 1 -4.464,-0.734 5.08,5.08 0 0 1 -3.205,-3.819 7.017,7.017 0 0 1 0.044,-1.761 5.141,5.141 0 0 0 0.045,-1.3 3.036,3.036 0 0 0 -2.061,-2.154 11.081,11.081 0 0 0 -3.787,-0.439 l -17.3,-0.054 a 12.289,12.289 0 0 1 -4.508,-0.6 4.85,4.85 0 0 1 -3.222,-3.88 3.058,3.058 0 0 1 0.715,-2.168 4.625,4.625 0 0 1 3.781,-1.746 l 33.776,0.857 c 10.593,0.269 22.6,0.574 33.071,-3.643 l 0.532,-0.217 c 1.836,-0.753 3.915,-1.606 6.209,-1.062 a 4.5,4.5 0 0 1 2.809,1.979 3.683,3.683 0 0 1 0.354,3.269 5.231,5.231 0 0 1 -3.237,3.014 12.484,12.484 0 0 1 -4.557,0.4 l -0.736,-0.024 a 6.706,6.706 0 0 0 -4.146,0.881 2.554,2.554 0 0 0 -0.971,1.755 1.4,1.4 0 0 0 0.329,1.1 4.786,4.786 0 0 0 1.441,0.842 c 1.109,0.5 2.63,1.185 2.622,3 a 3.038,3.038 0 0 1 -2.294,2.9 110.474,110.474 0 0 1 -28.081,3.649 z M 35.432,74.049 a 2.61,2.61 0 0 0 -2.075,0.972 1.152,1.152 0 0 0 -0.3,0.769 2.933,2.933 0 0 0 1.958,2.194 10.621,10.621 0 0 0 3.785,0.458 l 17.3,0.054 a 12.771,12.771 0 0 1 4.48,0.565 4.972,4.972 0 0 1 3.338,3.726 6.791,6.791 0 0 1 -0.034,1.824 5.345,5.345 0 0 0 -0.049,1.267 3.134,3.134 0 0 0 2,2.245 10.5,10.5 0 0 0 3.743,0.578 108.532,108.532 0 0 0 30.68,-3.519 1.05,1.05 0 0 0 0.8,-0.974 c 0,-0.45 -0.341,-0.676 -1.444,-1.173 a 6.273,6.273 0 0 1 -2.072,-1.292 3.36,3.36 0 0 1 -0.868,-2.647 4.574,4.574 0 0 1 1.766,-3.186 8.575,8.575 0 0 1 5.395,-1.277 l 0.759,0.024 a 10.806,10.806 0 0 0 3.84,-0.3 3.287,3.287 0 0 0 2,-1.8 1.7,1.7 0 0 0 -0.181,-1.545 v 0 a 2.493,2.493 0 0 0 -1.564,-1.077 c -1.663,-0.395 -3.277,0.266 -4.986,0.966 l -0.544,0.222 c -10.851,4.372 -23.08,4.063 -33.87,3.787 L 35.5,74.05 Z"
       fill="#2f3a5a"
       id="path63"
       style="fill:#000000;fill-opacity:1;stroke:#000000;stroke-opacity:1" />
    <path
       d="m 71.093,46.216 a 3.448,3.448 0 0 0 -1.99,-1.459 c -2.493,-0.734 -5.035,0.708 -7.295,2.59 -2.26,1.882 -4.393,4.235 -6.8,5.54 -2.3,1.249 -4.337,0.994 -6.579,-0.291 -1.56,-0.894 -3.936,-1 -4.15,2.713 a 5.844,5.844 0 0 0 1.383,4.162 4.335,4.335 0 0 0 2.892,1.307 c 3.113,0.3 6.175,-1.2 9.16,-2.687 L 69.3,52.329 A 3.9,3.9 0 0 0 71.722,49.5 4.786,4.786 0 0 0 71.093,46.216 Z"
       fill="#ad8a68"
       id="path65" />
    <path
       d="m 49.357,61.816 c -0.3,0 -0.6,-0.014 -0.9,-0.042 A 5.308,5.308 0 0 1 44.932,60.158 6.881,6.881 0 0 1 43.28,55.253 c 0.11,-1.911 0.746,-3.194 1.891,-3.813 a 3.889,3.889 0 0 1 3.755,0.29 c 2.114,1.212 3.737,1.292 5.605,0.28 a 24.511,24.511 0 0 0 4.515,-3.55 c 0.7,-0.642 1.405,-1.283 2.12,-1.879 3.1,-2.585 5.792,-3.493 8.217,-2.781 a 4.445,4.445 0 0 1 2.547,1.873 v 0 a 5.784,5.784 0 0 1 0.772,4.017 4.918,4.918 0 0 1 -2.962,3.536 l -11.579,5.76 c -2.681,1.334 -5.687,2.83 -8.804,2.83 z m -2.7,-8.742 a 1.116,1.116 0 0 0 -0.537,0.123 c -0.479,0.26 -0.78,1.03 -0.847,2.169 a 4.848,4.848 0 0 0 1.113,3.42 3.311,3.311 0 0 0 2.26,1 c 2.862,0.277 5.79,-1.179 8.619,-2.587 l 11.581,-5.762 a 2.894,2.894 0 0 0 1.888,-2.116 3.8,3.8 0 0 0 -0.485,-2.557 2.465,2.465 0 0 0 -1.434,-1.043 c -1.762,-0.519 -3.785,0.243 -6.373,2.4 -0.691,0.577 -1.371,1.2 -2.051,1.819 a 26.279,26.279 0 0 1 -4.91,3.832 c -2.463,1.337 -4.863,1.239 -7.553,-0.3 a 2.729,2.729 0 0 0 -1.266,-0.398 z"
       fill="#2f3a5a"
       id="path67"
       style="fill:#000000;fill-opacity:1;stroke:#000000;stroke-opacity:1" />
    <path
       d="m 49.007,24.215 a 4.189,4.189 0 0 0 1.5,2.6 c 2.412,2.037 5.946,1.679 9.379,0.693 3.433,-0.986 6.958,-2.557 10.271,-2.83 3.173,-0.261 5.309,1.018 7.173,3.546 1.3,1.758 3.884,3.045 5.943,-0.984 a 7.1,7.1 0 0 0 0.5,-5.305 5.267,5.267 0 0 0 -2.573,-2.873 c -3.315,-1.857 -7.454,-1.688 -11.5,-1.5 L 54,18.3 a 4.733,4.733 0 0 0 -4.081,1.954 5.814,5.814 0 0 0 -0.912,3.961 z"
       fill="#ad8a68"
       id="path69" />
    <path
       d="m 80.106,30.9 a 4.63,4.63 0 0 1 -3.582,-2.085 c -1.785,-2.419 -3.66,-3.361 -6.286,-3.143 a 30.37,30.37 0 0 0 -6.807,1.746 c -1.071,0.361 -2.179,0.735 -3.271,1.049 -2.962,0.85 -7.252,1.682 -10.3,-0.891 a 5.184,5.184 0 0 1 -1.841,-3.2 v 0 a 6.811,6.811 0 0 1 1.072,-4.688 5.786,5.786 0 0 1 4.86,-2.388 l 15.7,-0.734 c 3.954,-0.185 8.433,-0.394 12.036,1.625 a 6.24,6.24 0 0 1 3.03,3.409 8.127,8.127 0 0 1 -0.554,6.093 c -1.021,2 -2.3,3.075 -3.8,3.2 C 80.28,30.9 80.193,30.9 80.106,30.9 Z m -9.168,-7.258 c 2.9,0 5.2,1.282 7.2,3.986 A 2.679,2.679 0 0 0 80.2,28.9 c 0.945,-0.077 1.706,-1.192 2.177,-2.114 a 6.106,6.106 0 0 0 0.449,-4.517 4.218,4.218 0 0 0 -2.122,-2.33 c -3.1,-1.739 -7.1,-1.552 -10.965,-1.372 l -15.7,0.734 a 3.747,3.747 0 0 0 -3.3,1.521 4.845,4.845 0 0 0 -0.747,3.237 3.2,3.2 0 0 0 1.156,1.992 c 1.764,1.488 4.45,1.646 8.459,0.5 1.048,-0.3 2.133,-0.667 3.183,-1.021 a 31.782,31.782 0 0 1 7.282,-1.844 q 0.443,-0.045 0.866,-0.045 z"
       fill="#2f3a5a"
       id="path71"
       style="fill:#000000;fill-opacity:1;stroke:#000000;stroke-opacity:1" />
    <path
       d="m 85.927,51.791 c -1.448,1.783 -2.66,2.293 -4.823,3.043 -2.008,0.7 -4.807,2.161 -4.224,4.788 a 3.471,3.471 0 0 0 2.442,2.4 7.316,7.316 0 0 0 3.552,0.01 17.032,17.032 0 0 0 8.245,-4.228 7.767,7.767 0 0 0 2.719,-4.7 C 94.4,47.338 88.265,48.911 85.927,51.791 Z"
       fill="#ad8a68"
       id="path73" />
    <path
       d="M 80.951,63.248 A 6.588,6.588 0 0 1 79.028,62.979 4.42,4.42 0 0 1 75.9,59.839 c -0.565,-2.552 1.166,-4.666 4.874,-5.95 2.18,-0.755 3.121,-1.186 4.374,-2.729 v 0 c 1.688,-2.079 5.109,-3.642 7.507,-2.658 0.945,0.388 2.484,1.515 2.175,4.7 a 8.6,8.6 0 0 1 -3.03,5.334 17.912,17.912 0 0 1 -8.731,4.479 10.9,10.9 0 0 1 -2.118,0.233 z M 91.049,50.2 A 6.3,6.3 0 0 0 86.7,52.421 v 0 a 9.8,9.8 0 0 1 -5.272,3.357 c -1.855,0.643 -3.981,1.794 -3.575,3.627 a 2.5,2.5 0 0 0 1.757,1.66 6.264,6.264 0 0 0 3.065,-0.014 16.13,16.13 0 0 0 7.757,-3.979 6.714,6.714 0 0 0 2.407,-4.064 C 92.98,51.559 92.662,50.665 91.896,50.351 A 2.24,2.24 0 0 0 91.049,50.2 Z"
       fill="#2f3a5a"
       id="path75"
       style="fill:#000000;fill-opacity:1;stroke:#000000;stroke-opacity:1" />
    <path
       d="m 41.273,95.379 a 8.971,8.971 0 0 1 -5.71,-2.545 c -1.71,-1.392 -4.671,-3.043 -7.485,-0.992 a 4.13,4.13 0 0 0 -1.72,3.584 5.657,5.657 0 0 0 1.571,3.186 16.09,16.09 0 0 0 8.622,4.916 11.149,11.149 0 0 0 6.709,-0.3 c 6.998,-2.861 2.424,-7.434 -1.987,-7.849 z"
       fill="#ad8a68"
       id="path77" />
    <path
       d="m 39.638,104.9 a 14.913,14.913 0 0 1 -3.309,-0.4 16.976,16.976 0 0 1 -9.153,-5.234 6.673,6.673 0 0 1 -1.814,-3.762 5.168,5.168 0 0 1 2.128,-4.474 c 2.532,-1.848 5.625,-1.484 8.705,1.024 a 7.981,7.981 0 0 0 5.172,2.324 v 0 c 2.812,0.265 6.084,2.154 6.467,4.744 0.173,1.166 -0.143,3.37 -4.2,5.025 A 10.492,10.492 0 0 1 39.638,104.9 Z M 30.944,91.884 a 3.788,3.788 0 0 0 -2.277,0.766 3.121,3.121 0 0 0 -1.312,2.695 4.634,4.634 0 0 0 1.328,2.61 15.2,15.2 0 0 0 8.091,4.6 10.084,10.084 0 0 0 6.107,-0.254 c 1.2,-0.489 3.176,-1.514 2.973,-2.881 -0.2,-1.383 -2.434,-2.834 -4.676,-3.045 A 9.9,9.9 0 0 1 34.93,93.61 6.682,6.682 0 0 0 30.944,91.884 Z"
       fill="#2f3a5a"
       id="path79"
       style="fill:#000000;fill-opacity:1;stroke:#000000;stroke-opacity:1" />
    <path
       d="m 116.082,28.546 a 12.739,12.739 0 0 1 -1.51,0.764 56.352,56.352 0 0 1 -14.253,4.2 5.661,5.661 0 0 1 -2.169,0.041 2.061,2.061 0 0 1 -1.568,-1.36 c -0.321,-1.214 0.881,-2.279 2.017,-2.816 2.87,-1.36 6.126,-1.558 9.253,-2.121 a 18.61,18.61 0 0 0 4.833,-1.467 7.675,7.675 0 0 0 0.95,-0.588 q 1.277,1.627 2.447,3.347 z"
       fill="#ad8a68"
       id="path81" />
    <path
       d="m 98.982,34.636 a 4.588,4.588 0 0 1 -1.063,-0.117 3.019,3.019 0 0 1 -2.306,-2.08 c -0.479,-1.812 1.078,-3.273 2.557,-3.973 a 25.583,25.583 0 0 1 7.272,-1.844 c 0.746,-0.112 1.492,-0.225 2.231,-0.357 a 17.437,17.437 0 0 0 4.571,-1.382 6.849,6.849 0 0 0 0.816,-0.51 l 0.775,-0.54 0.583,0.743 c 0.866,1.105 1.7,2.251 2.489,3.406 l 0.59,0.867 -0.895,0.548 a 13.833,13.833 0 0 1 -1.628,0.826 57.284,57.284 0 0 1 -14.5,4.27 9.718,9.718 0 0 1 -1.492,0.143 z m 14.42,-8.1 c -0.092,0.052 -0.185,0.1 -0.278,0.148 a 19.355,19.355 0 0 1 -5.095,1.553 c -0.759,0.137 -1.524,0.252 -2.289,0.367 a 23.72,23.72 0 0 0 -6.715,1.673 c -0.825,0.391 -1.624,1.1 -1.478,1.657 a 1.1,1.1 0 0 0 0.832,0.642 4.783,4.783 0 0 0 1.785,-0.056 55.268,55.268 0 0 0 14,-4.122 c 0.148,-0.066 0.3,-0.134 0.452,-0.206 -0.392,-0.56 -0.8,-1.114 -1.216,-1.659 z"
       fill="#2f3a5a"
       id="path83"
       style="fill:#000000;fill-opacity:1;stroke:#000000;stroke-opacity:1" />
    <path
       d="m 115.393,50.9 a 3.636,3.636 0 0 0 -3.075,-1.392 c -3.324,0.04 -5.465,1.785 -4.231,5.308 a 5.641,5.641 0 0 0 3,3.251 3.455,3.455 0 0 0 3.673,-0.31 4.9,4.9 0 0 0 1.142,-3.33 5.42,5.42 0 0 0 -0.509,-3.527 z"
       fill="#ad8a68"
       id="path85" />
    <path
       d="m 112.808,59.447 a 5.267,5.267 0 0 1 -2.126,-0.465 6.683,6.683 0 0 1 -3.538,-3.835 4.839,4.839 0 0 1 0.308,-4.585 c 0.908,-1.3 2.633,-2.026 4.854,-2.054 a 4.6,4.6 0 0 1 3.914,1.829 v 0 a 6.355,6.355 0 0 1 0.678,4.174 5.7,5.7 0 0 1 -1.463,3.985 3.845,3.845 0 0 1 -2.627,0.951 z m -0.437,-8.939 h -0.041 a 3.908,3.908 0 0 0 -3.239,1.2 3.022,3.022 0 0 0 -0.06,2.777 4.649,4.649 0 0 0 2.462,2.667 2.541,2.541 0 0 0 2.593,-0.133 4.114,4.114 0 0 0 0.819,-2.674 4.568,4.568 0 0 0 -0.339,-2.884 v 0 a 2.666,2.666 0 0 0 -2.196,-0.953 z"
       fill="#2f3a5a"
       id="path87"
       style="fill:#000000;fill-opacity:1;stroke:#000000;stroke-opacity:1" />
    <path
       d="M 39.354,25.671 A 3.438,3.438 0 0 0 36.932,23.81 c -4.967,-0.392 -10.742,4.768 -8.127,9.732 2.649,5.029 9.2,1.821 11.214,-2.243 a 5.974,5.974 0 0 0 -0.665,-5.628 z"
       fill="#ad8a68"
       id="path89" />
    <path
       d="m 32.854,37.117 a 5.421,5.421 0 0 1 -4.935,-3.108 6.5,6.5 0 0 1 0.444,-6.845 9.917,9.917 0 0 1 8.647,-4.35 4.3,4.3 0 0 1 3.194,2.334 v 0 a 6.882,6.882 0 0 1 0.709,6.6 9.844,9.844 0 0 1 -7.982,5.373 z m 3.54,-12.327 a 8.023,8.023 0 0 0 -6.358,3.474 4.549,4.549 0 0 0 -0.346,4.813 3.431,3.431 0 0 0 3.219,2.04 7.947,7.947 0 0 0 6.214,-4.26 c 0.739,-1.492 0.164,-3.386 -0.619,-4.661 v 0 c -0.3,-0.494 -0.92,-1.33 -1.647,-1.387 C 36.7,24.8 36.548,24.79 36.394,24.79 Z"
       fill="#2f3a5a"
       id="path91"
       style="fill:#000000;fill-opacity:1;stroke:#000000;stroke-opacity:1" />
    <path
       d="m 81.805,112.946 a 6.155,6.155 0 0 1 -4.525,2.521 24.5,24.5 0 0 1 -5.334,-0.229 48.494,48.494 0 0 0 -30.488,7.28 c -0.107,0.069 -0.214,0.138 -0.321,0.2 q -2.7,-1.05 -5.276,-2.342 5.2,-2.532 10.348,-5.166 c 5.808,-2.969 12.288,-4.158 18.656,-5.278 l 11.993,-2.1 c 1.426,-0.25 3.015,-0.469 4.219,0.334 a 3.6,3.6 0 0 1 0.728,4.78 z"
       fill="#ad8a68"
       id="path93" />
    <path
       d="m 41.239,123.834 -0.464,-0.181 c -1.826,-0.71 -3.631,-1.512 -5.361,-2.381 l -1.808,-0.907 1.817,-0.886 c 3.44,-1.676 6.916,-3.412 10.331,-5.158 6.086,-3.111 12.913,-4.313 18.938,-5.373 l 11.993,-2.1 c 1.69,-0.3 3.462,-0.5 4.946,0.486 2.064,1.378 2.193,4.291 1.019,6.146 v 0 a 7.1,7.1 0 0 1 -5.25,2.98 20.4,20.4 0 0 1 -4.674,-0.135 l -0.882,-0.092 A 47.32,47.32 0 0 0 42,123.361 Z m -3.086,-3.463 c 0.946,0.435 1.908,0.847 2.878,1.234 a 49.293,49.293 0 0 1 31.013,-7.362 l 0.9,0.093 a 18.566,18.566 0 0 0 4.217,0.139 5.13,5.13 0 0 0 3.8,-2.063 v 0 A 2.606,2.606 0 0 0 80.522,109 c -0.87,-0.578 -2.149,-0.416 -3.491,-0.18 l -11.993,2.1 c -5.885,1.036 -12.555,2.209 -18.373,5.184 -2.813,1.438 -5.665,2.869 -8.512,4.267 z"
       fill="#2f3a5a"
       id="path95"
       style="fill:#000000;fill-opacity:1;stroke:#000000;stroke-opacity:1" />
    <path
       d="m 22.152,73.27 c -0.457,-5.075 -8.981,-4.367 -4.558,1.583 a 3.978,3.978 0 0 0 1.973,1.463 1.9,1.9 0 0 0 1.379,-0.1 2.894,2.894 0 0 0 1.206,-2.946 z"
       fill="#ad8a68"
       id="path97" />
    <path
       d="m 20.154,77.4 a 3.174,3.174 0 0 1 -0.858,-0.122 4.922,4.922 0 0 1 -2.5,-1.829 C 14.738,72.68 15.296,70.98 15.81,70.213 a 3.551,3.551 0 0 1 3.876,-1.189 4.585,4.585 0 0 1 3.467,4.155 c 0.128,1.425 -0.268,3.208 -1.764,3.938 A 2.791,2.791 0 0 1 20.154,77.4 Z m -1.581,-6.517 a 1.319,1.319 0 0 0 -1.108,0.445 c -0.285,0.425 -0.19,1.418 0.932,2.928 a 2.988,2.988 0 0 0 1.44,1.1 0.913,0.913 0 0 0 0.67,-0.033 c 0.546,-0.266 0.72,-1.177 0.648,-1.961 v 0 a 2.6,2.6 0 0 0 -1.971,-2.4 2.477,2.477 0 0 0 -0.611,-0.078 z"
       fill="#2f3a5a"
       id="path99"
       style="fill:#000000;fill-opacity:1;stroke:#000000;stroke-opacity:1" />
    <path
       d="m 23.882,53.442 a 7.021,7.021 0 0 1 -3.88,0.379 C 13.889,53.034 8.669,49.235 3.775,45.447 Q 4.5,43.1 5.395,40.834 c 0.1,0.059 0.211,0.12 0.318,0.183 4.443,2.663 8.413,5.658 13.767,6.167 a 17.541,17.541 0 0 1 3.819,0.5 3.52,3.52 0 0 1 2.546,2.628 3.218,3.218 0 0 1 -1.963,3.13 z"
       fill="#ad8a68"
       id="path101" />
    <path
       d="m 21.437,54.924 a 12.179,12.179 0 0 1 -1.562,-0.11 C 13.634,54.014 8.408,50.299 3.163,46.238 l -0.547,-0.423 0.2,-0.661 C 3.3,43.6 3.852,42.021 4.464,40.467 l 0.421,-1.067 1,0.561 c 0.113,0.063 0.229,0.129 0.344,0.2 0.7,0.421 1.4,0.852 2.086,1.28 3.592,2.232 6.984,4.341 11.262,4.748 0.316,0.03 0.635,0.052 0.953,0.073 a 12.365,12.365 0 0 1 3.082,0.474 4.488,4.488 0 0 1 3.227,3.448 4.177,4.177 0 0 1 -2.531,4.166 6.731,6.731 0 0 1 -2.871,0.574 z M 4.937,45.082 C 9.771,48.8 14.6,52.118 20.13,52.83 a 5.971,5.971 0 0 0 3.328,-0.293 v 0 a 2.256,2.256 0 0 0 1.395,-2.094 2.587,2.587 0 0 0 -1.865,-1.807 10.713,10.713 0 0 0 -2.594,-0.38 C 20.056,48.234 19.718,48.211 19.383,48.179 14.64,47.728 10.883,45.395 7.256,43.139 Q 6.584,42.72 5.9,42.3 c -0.343,0.927 -0.666,1.857 -0.962,2.782 z"
       fill="#2f3a5a"
       id="path103"
       style="fill:#000000;fill-opacity:1;stroke:#000000;stroke-opacity:1" />
  </g>
</svg>
