<?xml version="1.0" encoding="UTF-8" standalone="no"?>
<svg
   xmlns:dc="http://purl.org/dc/elements/1.1/"
   xmlns:cc="http://creativecommons.org/ns#"
   xmlns:rdf="http://www.w3.org/1999/02/22-rdf-syntax-ns#"
   xmlns:svg="http://www.w3.org/2000/svg"
   xmlns="http://www.w3.org/2000/svg"
   xmlns:sodipodi="http://sodipodi.sourceforge.net/DTD/sodipodi-0.dtd"
   xmlns:inkscape="http://www.inkscape.org/namespaces/inkscape"
   inkscape:version="1.0 (4035a4fb49, 2020-05-01)"
   height="512"
   width="512"
   sodipodi:docname="neptune.svg"
   xml:space="preserve"
   viewBox="0 0 512.00001 512.00001"
   y="0px"
   x="0px"
   id="Capa_1"
   version="1.1"><metadata
   id="metadata52"><rdf:RDF><cc:Work
       rdf:about=""><dc:format>image/svg+xml</dc:format><dc:type
         rdf:resource="http://purl.org/dc/dcmitype/StillImage" /><dc:title></dc:title></cc:Work></rdf:RDF></metadata><defs
   id="defs50" /><sodipodi:namedview
   inkscape:current-layer="Capa_1"
   inkscape:window-maximized="1"
   inkscape:window-y="-8"
   inkscape:window-x="76"
   inkscape:cy="308.88699"
   inkscape:cx="308.88699"
   inkscape:zoom="1.4406563"
   showgrid="false"
   id="namedview48"
   inkscape:window-height="1052"
   inkscape:window-width="1836"
   inkscape:pageshadow="2"
   inkscape:pageopacity="0"
   guidetolerance="10"
   gridtolerance="10"
   objecttolerance="10"
   borderopacity="1"
   bordercolor="#666666"
   pagecolor="#ffffff" />
<g
   transform="matrix(0.82878065,0,0,0.82878065,3.7778008e-5,0.01471918)"
   id="g15">
	<g
   id="g13">
		<g
   id="filled_outline_21_">
			<circle
   id="circle2"
   r="298.48099"
   cy="308.85901"
   cx="308.78"
   style="fill:#2a90de" />
			<path
   id="path4"
   d="m 493.983,74.881 c 0,0.803 0.062,1.595 0.062,2.398 C 494.024,302.478 330.313,494.257 107.914,529.632 229.437,641.017 418.241,632.803 529.626,511.291 641.011,389.779 632.797,200.964 511.285,89.579 505.706,84.463 499.932,79.564 493.983,74.881 Z"
   style="fill:#2683c9" />
			<ellipse
   id="ellipse6"
   ry="51.462002"
   rx="72.046997"
   cy="401.491"
   cx="195.564"
   style="fill:#2379ba" />
			<path
   id="path8"
   d="M 308.78,0.086 C 166.312,0.292 42.422,97.782 8.725,236.195 H 8.488 l 0.103,0.545 C -9.513,311.731 1.222,390.787 38.666,458.233 v 0.093 h 0.093 c 82.545,149.22 270.434,203.266 419.654,120.72 C 607.633,496.5 661.678,308.612 579.133,159.392 524.726,61.048 421.174,0.034 308.78,0.086 Z m 0,20.585 c 67.014,-0.062 131.939,23.343 183.504,66.139 -49.97,-5.229 -100.444,-2.625 -149.601,7.73 -63.072,13.36 -128.244,13.36 -191.316,0 -9.613,-2.058 -19.36,-3.654 -29.128,-5.095 C 174.227,45.023 240.387,20.63 308.78,20.671 Z m 0,576.377 c -45.009,0.031 -89.39,-10.55 -129.541,-30.877 H 438.32 c -40.16,20.327 -84.531,30.907 -129.54,30.877 z M 472.863,545.585 H 144.698 c -29.488,-20.482 -54.91,-46.244 -75.001,-75.999 7.75,3.623 15.233,7.802 22.376,12.516 31.876,21.295 69.361,32.648 107.69,32.606 h 1.894 c 38.525,0 76.174,-11.466 108.153,-32.936 28.201,-18.835 61.312,-28.973 95.226,-29.148 l 153.769,-0.782 c -21.368,37.217 -50.722,69.237 -85.942,93.743 z m 96.749,-114.38 -164.679,0.834 c -38.144,0.226 -75.372,11.682 -107.041,32.936 -28.479,19.031 -61.981,29.179 -96.234,29.148 h -1.894 C 165.5,494.154 131.988,484.016 103.499,464.975 87.865,454.611 70.81,446.572 52.86,441.117 40.869,418.062 32.08,393.473 26.738,368.041 c 27.44,-4.415 53.613,-14.667 76.761,-30.044 28.489,-19.031 62.002,-29.179 96.265,-29.138 h 1.894 c 34.459,0 68.146,10.262 96.749,29.478 31.546,21.079 68.599,32.421 106.537,32.606 l 184.986,0.937 c -4.57,20.461 -11.373,40.357 -20.297,59.326 -0.001,0 -0.021,0 -0.021,-0.001 z m 27.357,-122.346 c 0,14.204 -1.06,28.397 -3.149,42.446 l -188.743,-0.947 c -34.109,-0.206 -67.405,-10.457 -95.72,-29.478 -31.876,-21.295 -69.361,-32.648 -107.7,-32.606 h -1.894 c -38.329,-0.041 -75.814,11.311 -107.69,32.606 -20.739,13.782 -44.196,22.952 -68.784,26.884 -4.323,-31.166 -3.448,-62.835 2.594,-93.723 l 98.807,-17.652 c 73.766,-13.246 149.436,-11.476 222.502,5.208 76.349,17.446 155.447,19.175 232.486,5.074 l 10.015,-1.822 c 4.806,20.998 7.255,42.468 7.276,64.01 z M 576.013,226.417 C 501.712,240.024 425.414,238.356 351.772,221.528 276.02,204.226 197.56,202.384 121.087,216.135 l -90.069,16.077 c 13.01,-46.934 37.701,-89.812 71.769,-124.621 14.821,1.657 29.725,4.024 44.34,7.091 32.843,6.947 66.325,10.447 99.898,10.467 33.574,-0.021 67.055,-3.52 99.898,-10.467 56.3,-11.867 114.318,-13.123 171.081,-3.695 30.651,32.318 53.397,71.306 66.448,113.896 z" />
			<path
   id="path10"
   d="m 195.564,339.737 c -45.4,0 -82.34,27.697 -82.34,61.755 0,34.058 36.94,61.755 82.34,61.755 45.4,0 82.34,-27.697 82.34,-61.755 0,-34.058 -36.94,-61.755 -82.34,-61.755 z m 0,102.924 c -33.471,0 -61.755,-18.856 -61.755,-41.17 0,-22.314 28.284,-41.17 61.755,-41.17 33.471,0 61.755,18.856 61.755,41.17 -0.001,22.314 -28.284,41.17 -61.755,41.17 z" />
		</g>
	</g>
</g>
<g
   id="g17">
</g>
<g
   id="g19">
</g>
<g
   id="g21">
</g>
<g
   id="g23">
</g>
<g
   id="g25">
</g>
<g
   id="g27">
</g>
<g
   id="g29">
</g>
<g
   id="g31">
</g>
<g
   id="g33">
</g>
<g
   id="g35">
</g>
<g
   id="g37">
</g>
<g
   id="g39">
</g>
<g
   id="g41">
</g>
<g
   id="g43">
</g>
<g
   id="g45">
</g>
</svg>
