<?xml version="1.0" encoding="UTF-8" standalone="no"?>
<svg
   xmlns:dc="http://purl.org/dc/elements/1.1/"
   xmlns:cc="http://creativecommons.org/ns#"
   xmlns:rdf="http://www.w3.org/1999/02/22-rdf-syntax-ns#"
   xmlns:svg="http://www.w3.org/2000/svg"
   xmlns="http://www.w3.org/2000/svg"
   xmlns:sodipodi="http://sodipodi.sourceforge.net/DTD/sodipodi-0.dtd"
   xmlns:inkscape="http://www.inkscape.org/namespaces/inkscape"
   inkscape:version="1.0 (4035a4fb49, 2020-05-01)"
   sodipodi:docname="pluto.svg"
   id="svg76"
   version="1.1"
   width="512"
   viewBox="0 0 383.99999 384.17013"
   height="512">
  <metadata
     id="metadata82">
    <rdf:RDF>
      <cc:Work
         rdf:about="">
        <dc:format>image/svg+xml</dc:format>
        <dc:type
           rdf:resource="http://purl.org/dc/dcmitype/StillImage" />
        <dc:title></dc:title>
      </cc:Work>
    </rdf:RDF>
  </metadata>
  <defs
     id="defs80" />
  <sodipodi:namedview
     inkscape:current-layer="svg76"
     inkscape:window-maximized="1"
     inkscape:window-y="-8"
     inkscape:window-x="76"
     inkscape:cy="440.75363"
     inkscape:cx="148.83453"
     inkscape:zoom="0.6953125"
     units="px"
     showgrid="false"
     id="namedview78"
     inkscape:window-height="1052"
     inkscape:window-width="1836"
     inkscape:pageshadow="2"
     inkscape:pageopacity="0"
     guidetolerance="10"
     gridtolerance="10"
     objecttolerance="10"
     borderopacity="1"
     bordercolor="#666666"
     pagecolor="#ffffff" />
  <g
     transform="matrix(0.79991082,0,0,0.79991082,0.0211027,-0.00268806)"
     id="g944">
    <path
       d="m 472.10547,239.94531 c 0,128.13281 -103.86719,232 -232,232 -128.12891,0 -232.000001,-103.86719 -232.000001,-232 0,-128.1289 103.871091,-231.999998 232.000001,-231.999998 128.13281,0 232,103.871098 232,231.999998 z m 0,0"
       fill="#816d58"
       id="path2" />
    <path
       d="m 448.10547,223.94531 c 0.0547,-72.48828 -33.83985,-140.824216 -91.58203,-184.644529 -105.94922,-61.128906 -241.15625,-29.5 -308.99219,72.281249 -67.835938,101.78125 -45,238.75 52.191406,313.01172 71.761724,41.61719 160.285154,41.75 232.171874,0.34766 71.88672,-41.40235 116.19531,-118.03907 116.21094,-200.9961 z m 0,0"
       fill="#8d7761"
       id="path4" />
    <path
       d="m 325.47266,278.71484 -59.76563,18.83203 C 261.1875,283.17578 251.03906,271.25 237.57422,264.49219 c -13.46485,-6.75782 -29.09375,-7.77344 -43.31641,-2.8086 -28.6875,10.85547 -43.71484,42.39453 -34.07031,71.51172 l 18.78906,59.73438 c 8.76953,27.86718 30.14453,49.97656 57.69922,59.67968 l -6.80859,19.11329 c 3.39062,0.14453 6.79297,0.25781 10.21484,0.25781 26.16406,0.008 52.14063,-4.41797 76.82422,-13.09766 l 0.0625,-0.35156 -15.27734,-47.12109 c -0.66016,-2.02735 -0.47657,-4.23438 0.5,-6.13282 0.97656,-1.89453 2.67187,-3.32031 4.70703,-3.96093 l 54.26562,-17.07422 c 14.3711,-4.51953 26.29688,-14.67188 33.05469,-28.13672 6.75781,-13.46485 7.76953,-29.09375 2.80859,-43.31641 -10.85546,-28.71094 -42.42578,-43.74219 -71.55468,-34.07422 z m 0,0"
       fill="#89745e"
       id="path6" />
    <path
       d="m 306.85937,401.31641 54.26172,-17.07422 c 14.3711,-4.51953 26.29688,-14.67188 33.0586,-28.13672 6.75781,-13.46485 7.76953,-29.09375 2.80859,-43.31641 -10.85547,-28.6875 -42.39844,-43.71875 -71.51562,-34.07422 l -59.76563,18.83203 C 261.1875,283.17578 251.03906,271.25 237.57422,264.49219 c -13.46485,-6.75782 -29.09375,-7.77344 -43.31641,-2.8086 -28.6875,10.85547 -43.71484,42.39453 -34.07031,71.51172 l 18.78906,59.73438 c 8.76953,27.86718 30.14453,49.97656 57.69922,59.67968 l -0.88281,2.47266 c 25.51562,-2.13672 50.49609,-8.50781 73.91406,-18.85547 l -8.04687,-24.80078 c -0.66407,-2.02734 -0.48829,-4.23828 0.48828,-6.14062 0.97656,-1.89844 2.67187,-3.32813 4.71093,-3.96875 z m 0,0"
       fill="#9a826a"
       id="path8" />
    <g
       fill="#746250"
       id="g46">
      <path
         d="m 168.10547,135.94531 c 0,13.25781 -10.7461,24 -24,24 -13.25391,0 -24,-10.74219 -24,-24 0,-13.2539 10.74609,-24 24,-24 13.2539,0 24,10.7461 24,24 z m 0,0"
         id="path10" />
      <path
         d="m 240.10547,95.945312 h 16 v 15.999998 h -16 z m 0,0"
         id="path12" />
      <path
         d="m 352.10547,111.94531 h 16 v 16 h -16 z m 0,0"
         id="path14" />
      <path
         d="m 288.10547,79.945312 h 16 v 16 h -16 z m 0,0"
         id="path16" />
      <path
         d="m 184.10547,71.945312 h 16 v 16 h -16 z m 0,0"
         id="path18" />
      <path
         d="m 56.105469,167.94531 h 16 v 16 h -16 z m 0,0"
         id="path20" />
      <path
         d="m 232.10547,183.94531 h 16 v 16 h -16 z m 0,0"
         id="path22" />
      <path
         d="m 104.10547,367.94531 h 16 v 16 h -16 z m 0,0"
         id="path24" />
      <path
         d="m 72.105469,343.94531 h 16 v 16 h -16 z m 0,0"
         id="path26" />
      <path
         d="m 296.10547,221.60937 h -0.32031 l -24,-0.97265 c -4.41797,-0.17969 -7.85547,-3.90235 -7.67969,-8.32031 0.17578,-4.41797 3.90234,-7.85938 8.32031,-7.67969 l 24,0.96484 c 4.41797,0.0859 7.92969,3.73828 7.84375,8.15625 -0.0859,4.41797 -3.73828,7.92969 -8.15625,7.84375 z m 0,0"
         id="path28" />
      <path
         d="m 470.89844,216.13281 c -0.54297,-5.34375 -1.33594,-10.61719 -2.23828,-15.84765 l -10.21875,1.14062 c -40.5625,4.50391 -81.375,6.375 -122.1836,5.60156 h -0.15234 c -4.41797,-0.043 -8.03125,3.50391 -8.07422,7.92578 -0.043,4.41797 3.50391,8.03125 7.92187,8.07422 5.99219,0.11328 11.98438,0.16797 17.97657,0.16797 35.51172,0.0156 70.99609,-1.93359 106.28906,-5.83984 z m 0,0"
         id="path30" />
      <path
         d="m 360.10547,167.94531 c -27.13672,0.35547 -54.27344,-0.77344 -81.28906,-3.375 l -11.19922,-1.87109 c -4.35938,-0.72266 -7.30469,-4.84375 -6.57813,-9.20313 0.72266,-4.35937 4.84375,-7.30468 9.20313,-6.58203 l 11.19922,1.875 c 26.14453,2.4961 52.40625,3.55078 78.66406,3.15625 4.41797,0 8,3.58203 8,8 0,4.42188 -3.58203,8 -8,8 z m 0,0"
         id="path32" />
      <path
         d="m 457.24219,162.71484 c 0.50781,-0.12109 1,-0.29297 1.47265,-0.51953 -1.82031,-5.08984 -3.80078,-10.08984 -5.94531,-15 l -16.88672,2.39844 c -6.15234,0.875 -18.92969,1.60156 -36,1.97656 -4.41797,0.0508 -7.96094,3.67578 -7.91015,8.09375 0.0508,4.41797 3.67578,7.95703 8.09375,7.90625 H 400.25 c 12.48828,-0.29687 29.19141,-0.89453 37.85547,-2.13672 z m 0,0"
         id="path34" />
      <path
         d="m 80.105469,279.54687 c -4.417969,0.10157 -8.082031,-3.39843 -8.183594,-7.8164 -0.101563,-4.41797 3.398437,-8.08203 7.816406,-8.1836 9,-0.41406 18.136719,-1.19921 27.144529,-2.32812 l 20.23828,-2.52734 c 4.32422,-0.4375 8.20313,2.65625 8.74219,6.96875 0.53906,4.30859 -2.46094,8.26171 -6.75781,8.90234 l -20.23828,2.53516 c -9.425784,1.17578 -18.968752,1.99218 -28.375002,2.40234 z m 0,0"
         id="path36" />
      <path
         d="m 48.441406,263.63672 c -8.414062,-0.35156 -16.917968,-1.01563 -25.285156,-1.98438 -5.722656,-0.65625 -10.328125,-1.16015 -14.121094,-1.60156 0.472656,5.48828 1.09375,10.9375 1.941406,16.3125 3.011719,0.32813 6.3125,0.69531 10.347657,1.16016 8.75,1 17.644531,1.70312 26.445312,2.0625 h 0.335938 c 4.417969,0.0937 8.074219,-3.41797 8.164062,-7.83594 0.08984,-4.41797 -3.417969,-8.07031 -7.835937,-8.16406 z m 0,0"
         id="path38" />
      <path
         d="M 111.11328,304.01172 90.875,306.53906 c -24.097656,2.95703 -48.441406,3.41797 -72.632812,1.36719 1.71875,5.60156 3.6875,11.13672 5.816406,16.57031 7.703125,0.48047 15.421875,0.79688 23.152344,0.79688 15.257812,0 30.503906,-0.94922 45.648437,-2.83985 l 20.238285,-2.53515 c 2.89062,-0.29297 5.39453,-2.125 6.54297,-4.78907 1.14843,-2.66796 0.76562,-5.74609 -1.00782,-8.04687 -1.76953,-2.30078 -4.64843,-3.46484 -7.51953,-3.03516 z m 0,0"
         id="path40" />
      <path
         d="m 112.10547,226.46094 c -4.24219,-0.0117 -7.74219,-3.33594 -7.96875,-7.57422 -0.22656,-4.23828 2.89453,-7.91406 7.11328,-8.37891 7.84766,-0.85547 15.76172,-1.94531 23.51172,-3.24219 2.85156,-0.54687 5.77734,0.49219 7.64062,2.71875 1.86719,2.22657 2.37891,5.28907 1.33985,8 -1.03907,2.71094 -3.46485,4.64844 -6.33985,5.0586 -8.05468,1.35156 -16.27343,2.48047 -24.42578,3.36719 -0.28906,0.0312 -0.57812,0.0508 -0.87109,0.0508 z m 0,0"
         id="path42" />
      <path
         d="m 79.835938,212.74609 c -15.5625,0.53125 -31.140626,0.21485 -46.664063,-0.9414 L 10.082031,210.06641 C 9.410156,215.33203 8.882812,220.63672 8.5625,225.99609 l 23.398438,1.76563 c 10.976562,0.80078 22.074218,1.24219 33.167968,1.24219 5.101563,0 10.183594,-0.0898 15.25,-0.26563 4.417969,-0.14844 7.878906,-3.85156 7.726563,-8.26953 -0.148438,-4.41797 -3.851563,-7.87891 -8.269531,-7.73047 z m 0,0"
         id="path44" />
    </g>
    <path
       d="m 477.875,207.65234 c 0,-0.1289 0.0391,-0.24218 0,-0.36718 -0.0391,-0.12891 -0.10547,-0.25782 -0.12891,-0.39454 -2.51562,-18.1914 -7.13281,-36.03125 -13.75,-53.16015 v -0.0625 c -0.1875,-1.17969 -0.63672,-2.30078 -1.32031,-3.28125 C 421.36719,47.707031 315.18359,-13.398438 205.64844,2.484375 96.113281,18.363281 11.65625,107.10547 1.210938,217.29297 v 0.13281 0.13672 C 0.5,224.9375 0.105469,232.39453 0.105469,239.94531 c -0.003907,26.72656 4.476562,53.26563 13.257812,78.50781 0.07031,0.2461 0.144531,0.47657 0.238281,0.71875 C 54.136719,435.61328 176.33594,502.375 296.22266,473.57812 416.10547,444.78125 494.64844,329.80078 477.875,207.65234 Z m -236.71875,256.29297 3.08594,-8.66015 c 0.71484,-2.00782 0.59765,-4.21485 -0.31641,-6.13282 -0.91797,-1.92187 -2.5625,-3.39843 -4.57031,-4.10156 -25.14453,-8.91406 -44.65625,-29.09766 -52.72266,-54.52734 l -18.78906,-59.73438 c -8.33984,-25 4.46484,-52.13281 29.0625,-61.58594 12.1875,-4.2539 25.57422,-3.38281 37.10937,2.41016 11.53125,5.79297 20.22266,16.01953 24.08204,28.33203 1.32422,4.21875 5.8164,6.5586 10.03125,5.23438 L 327.875,286.37891 c 25.00391,-8.35547 52.15625,4.45703 61.59766,29.07421 4.24609,12.17969 3.375,25.5625 -2.41016,37.08985 -5.78906,11.52734 -15.99609,20.22265 -28.30078,24.10156 l -54.26953,17.07031 c -4.07031,1.28516 -7.45703,4.14063 -9.41016,7.9336 -1.95312,3.79297 -2.30859,8.21093 -0.99219,12.26562 l 12.9375,39.86328 c -21.32812,6.66407 -43.53125,10.09375 -65.87109,10.16797 z m 80.88672,-15.55859 -12.80078,-39.41406 54.26562,-17.07422 c 16.42969,-5.17188 30.06641,-16.78125 37.79688,-32.17578 7.73047,-15.39844 8.89453,-33.26563 3.22656,-49.53516 -12.35156,-32.70313 -48.23438,-49.91406 -81.47266,-39.08203 l -52.55078,16.52344 c -13.70703,-29.82813 -47.84375,-44.34375 -78.83203,-33.53125 -32.71875,12.33593 -49.9375,48.23046 -39.08203,81.46484 l 18.79297,59.73828 c 8.73828,27.54297 28.82031,50.04688 55.19922,61.84766 l -2.20703,6.18359 C 139.47266,457.24609 65.320312,403.64844 32.90625,324.9375 c 4.800781,0.19531 9.601562,0.30469 14.398438,0.30469 15.246093,-0.004 30.472656,-0.9375 45.601562,-2.80078 l 20.23828,-2.5586 c 2.875,-0.30859 5.35938,-2.14844 6.49609,-4.80859 1.13672,-2.65625 0.75391,-5.72266 -1.00781,-8.01563 -1.76172,-2.29297 -4.625,-3.46093 -7.48828,-3.04687 l -20.214842,2.55078 c -21.230469,2.58984 -42.648438,3.25781 -64,1.99219 -3.285157,-10.20313 -5.828126,-20.62891 -7.605469,-31.19922 l 2.078125,0.23047 c 8.28125,0.92968 17.160156,1.60156 26.398437,2.04297 h 0.304688 c 4.417969,0.0976 8.082031,-3.40235 8.179687,-7.82032 0.101563,-4.41797 -3.402344,-8.08203 -7.820312,-8.17968 -8.863282,-0.41016 -17.382813,-1.06641 -25.328125,-1.96094 l -2.230469,-0.24219 -3.792969,-0.41406 c -0.640625,-6.9375 -1.007812,-13.96094 -1.007812,-21.06641 0,-4.47656 0.167969,-8.92578 0.433593,-13.34375 l 15.429688,1.16016 c 10.945312,0.80078 22,1.25 33.050781,1.25 5.136719,0 10.257813,-0.0898 15.367188,-0.26563 2.121093,-0.0703 4.128906,-0.98437 5.574219,-2.53906 1.449218,-1.55078 2.222656,-3.61719 2.144531,-5.73828 -0.292969,-4.35156 -3.914063,-7.72266 -8.269531,-7.71484 -15.554688,0.55078 -31.125,0.23828 -46.640626,-0.94141 L 18.089844,210.67578 C 31.128906,111.32812 108.58203,32.738281 207.73047,18.253906 306.875,3.769531 403.57422,56.914062 444.49219,148.37891 l -8.57813,1.23046 c -6.15234,0.875 -18.92578,1.60157 -36,1.97657 -4.41797,0.0508 -7.95703,3.67578 -7.90625,8.09375 0.0508,4.41797 3.67188,7.95703 8.08985,7.90625 h 0.18359 c 12.48828,-0.29297 29.19141,-0.89453 37.85547,-2.13282 l 12.5625,-1.79296 c 4.41406,12.19531 7.7539,24.7539 9.97656,37.53515 l -2.25781,0.25781 c -40.5586,4.48438 -81.36328,6.33985 -122.16016,5.54297 h -0.15234 c -4.41797,-0.0469 -8.03516,3.5 -8.07813,7.91797 -0.0469,4.41797 3.5,8.03516 7.91797,8.08203 6.19141,0.1211 12.38672,0.17969 18.58594,0.17578 35.30469,0.008 70.58594,-1.9375 105.67969,-5.82421 l 2.72656,-0.3125 c 10.25391,99.98828 -47.34766,194.5625 -140.89453,231.32812 z m 0,0"
       id="path48" />
    <path
       d="m 144.10547,103.94531 c -17.67188,0 -32,14.32813 -32,32 0,17.67578 14.32812,32 32,32 17.67578,0 32,-14.32422 32,-32 0,-17.67187 -14.32422,-32 -32,-32 z m 0,48 c -8.83594,0 -16,-7.16015 -16,-16 0,-8.83593 7.16406,-16 16,-16 8.83594,0 16,7.16407 16,16 0,8.83985 -7.16406,16 -16,16 z m 0,0"
       id="path50" />
    <path
       d="m 240.10547,95.945312 h 16 v 15.999998 h -16 z m 0,0"
       id="path52" />
    <path
       d="m 352.10547,111.94531 h 16 v 16 h -16 z m 0,0"
       id="path54" />
    <path
       d="m 288.10547,79.945312 h 16 v 16 h -16 z m 0,0"
       id="path56" />
    <path
       d="m 184.10547,71.945312 h 16 v 16 h -16 z m 0,0"
       id="path58" />
    <path
       d="m 56.105469,167.94531 h 16 v 16 h -16 z m 0,0"
       id="path60" />
    <path
       d="m 232.10547,183.94531 h 16 v 16 h -16 z m 0,0"
       id="path62" />
    <path
       d="m 104.10547,367.94531 h 16 v 16 h -16 z m 0,0"
       id="path64" />
    <path
       d="m 72.105469,343.94531 h 16 v 16 h -16 z m 0,0"
       id="path66" />
    <path
       d="m 296.42578,205.62109 -24,-0.96875 c -4.41797,-0.17968 -8.14453,3.26172 -8.32031,7.67969 -0.17578,4.41797 3.26172,8.14063 7.67969,8.32031 l 24,0.97657 h 0.32031 c 4.41797,0.0859 8.07031,-3.42579 8.15625,-7.84375 0.0859,-4.42188 -3.42578,-8.07032 -7.84375,-8.15625 z m 0,0"
       id="path68" />
    <path
       d="m 360.10547,167.94531 c 4.41797,0 8,-3.57812 8,-8 0,-4.41797 -3.58203,-8 -8,-8 -26.27344,0.39844 -52.55078,-0.66015 -78.71094,-3.15625 l -11.19922,-1.875 c -4.35937,-0.72265 -8.48047,2.22266 -9.20312,6.58203 -0.72656,4.35938 2.21875,8.48047 6.57812,9.20313 l 11.19922,1.87109 c 27.03125,2.60156 54.18359,3.73047 81.33594,3.375 z m 0,0"
       id="path70" />
    <path
       d="m 127.11328,258.69922 -20.23828,2.52734 c -9.007812,1.12891 -18.144531,1.91406 -27.144531,2.32813 -4.417969,0.10156 -7.917969,3.76562 -7.816407,8.18359 0.101563,4.41797 3.765626,7.91797 8.183594,7.81641 h 0.382813 c 9.410156,-0.4375 18.953125,-1.25391 28.378911,-2.39844 l 20.23828,-2.53516 c 4.29687,-0.64453 7.29687,-4.59375 6.75781,-8.90625 -0.53906,-4.3125 -4.41797,-7.40625 -8.74219,-6.96875 z m 0,0"
       id="path72" />
    <path
       d="m 134.75391,207.26562 c -7.75,1.29688 -15.66407,2.40235 -23.51172,3.24219 -2.87891,0.26172 -5.39453,2.0586 -6.57422,4.69531 -1.18359,2.64063 -0.84766,5.71094 0.87109,8.03516 1.72266,2.32031 4.5625,3.53516 7.42969,3.17188 8.15234,-0.88672 16.37109,-2.01563 24.42578,-3.36719 2.875,-0.41016 5.30078,-2.34766 6.33984,-5.0586 1.03907,-2.71093 0.52735,-5.77343 -1.33984,-8 -1.86328,-2.22656 -4.78906,-3.26562 -7.64062,-2.71875 z m 0,0"
       id="path74" />
  </g>
</svg>
