<svg id="Capa_1" enable-background="new 0 0 512.048 512.048" height="512" viewBox="0 0 512.048 512.048" width="512" xmlns="http://www.w3.org/2000/svg"><g><g><path d="m64.595 353.602-12.5-29.734h-4.988c-31.677 56.288-45.714 106.374-37.302 139.62l33.871-33.431c-3.547-16.701 3.088-41.694 18.04-71.584z" fill="#ffe02f"/><path d="m23.587 449.885 20.089-19.828c-3.547-16.701 3.088-41.694 18.04-71.584l2.879-4.871-12.5-29.734h-4.988c-9.182 16.316-16.872 32.106-22.972 47.121-10.548 32.98-11.322 60.57-.548 78.896z" fill="#fbc700"/><path d="m323.741 47.234v4.701l28.854 12.333 5.751-2.426c32.369-16.192 58.994-22.63 75.565-16.945l34.061-33.618c-33.124-11.05-85.276 2.777-144.231 35.955z" fill="#ffe02f"/><path d="m358.346 61.843c32.369-16.192 58.994-22.63 75.565-16.945l19.18-18.93c-18.28-13.072-47.381-12.877-82.611-1.551-14.901 6.076-30.561 13.713-46.739 22.817v4.701l28.854 12.333z" fill="#fbc700"/><path d="m440.147 141.735-102.552-74.466-4.106-16.611c-3.228-1.217-6.476-2.364-9.747-3.424.008-.004.016-.009.023-.013-10.05-3.257-20.067-5.752-30.011-7.545v.017l-37.319 10.966-202.298 147.111-17.463 41.501-.013.008c-1.35 18.079-.41 36.711 3.081 55.601l.014-.006 10.839 3.729 74 113.667-3.394 17.095c3.017 2.35 6.079 4.629 9.199 6.808l30.195 1.622 68.786-49.819 106.094-95.103 106.454-146.271z" fill="#ff9838"/><path d="m39.756 294.873 10.839 3.729 74 113.667-3.394 17.095c3.017 2.35 6.079 4.629 9.199 6.808l30.195 1.622 48.437-35.081c-62.182-43.131-102.911-115.015-102.911-196.423 0-17.212 1.836-33.993 5.295-50.173l-57.279 41.653-17.463 41.501-.013.008c-1.35 18.079-.41 36.711 3.081 55.601z" fill="#ff8706"/><path d="m393.747 382.441 70.182-76.338 9.384-17.1h.001c4.886-32.092 2.597-66.281-8.602-100.835l-11.367 1.684-96.75 125.662-91.791 80.618z" fill="#ff9838"/><path d="m265.87 86.508c13.118-13.118 22.682-29.249 27.884-46.816-130.26-23.492-247.768 74.922-257.081 199.579l32.025-32.025c18.898-18.898 43.937-30.333 70.34-32.124 26.403-1.791 51.442-13.226 70.341-32.124z" fill="#ffaa5b"/><path d="m107.328 182.162c4.559-45.455 21.869-87.144 48.286-121.461-65.991 34.378-113.179 101.444-118.941 178.57l32.025-32.025c11.083-11.083 24.287-19.575 38.63-25.084z" fill="#ff9838"/><path d="m436.046 130.527c-4.391-6.287-9.152-12.36-14.225-18.209l-8.725-2.216-35.833-33.167-1.677-4.971c-5.552-3.619-11.296-7.003-17.219-10.131-.007.003-.013.006-.02.01-8.092-4.273-16.397-7.995-24.858-11.185l-.976 5.858c-4.095 24.57-15.765 47.246-33.378 64.859l-62.06 62.06c-20.761 20.761-48.439 33.154-77.753 34.813s-56.992 14.052-77.753 34.813l-41.812 41.812c1.779 9.62 4.189 19.304 7.338 29.019.004-.008.008-.016.013-.024 2.047 6.316 4.396 12.555 7.029 18.701h4.583l30.375 46.534.125 9.745c9.701 11.301 20.441 21.528 31.982 30.517l77.003-77.003c11.037-11.037 18.967-24.791 22.989-39.872l6.283-23.562c4.022-15.082 11.951-28.836 22.989-39.873l45.12-45.12c10.796-10.796 24.196-18.623 38.902-22.724l87.711-24.458 8.146-2.4 8.34-16.614z" fill="#ffaa5b"/><path d="m47.107 323.868c2.047 6.316 4.396 12.555 7.029 18.701h4.583l30.375 46.534.125 9.745c9.701 11.301 20.441 21.528 31.982 30.517l54.524-54.524c-37.038-37.201-61.882-86.54-68.074-141.528-9.486 5.315-18.274 11.939-26.083 19.749l-41.812 41.812c1.779 9.62 4.189 19.304 7.338 29.019.004-.009.009-.017.013-.025z" fill="#ff9838"/><path d="m157.11 330.959c9.525-9.525 16.44-21.342 20.078-34.312 5.375-19.161-12.286-36.822-31.448-31.448-12.97 3.638-24.787 10.553-34.312 20.078l-57.292 57.292c2.305 5.378 4.824 10.687 7.579 15.904-.003.007-.006.013-.01.02 7.714 14.61 17.006 28.112 27.513 40.357z" fill="#ffba7e"/><path d="m61.706 358.493c7.714 14.61 17.006 28.112 27.513 40.357l58.229-58.229c-12.665-18.591-22.766-39.065-29.815-60.911-2.158 1.742-4.233 3.595-6.205 5.567l-57.292 57.292c2.305 5.378 4.824 10.687 7.579 15.904-.002.007-.005.013-.009.02z" fill="#ffaa5b"/><path d="m375.585 71.964-9.021 27.149c-4.22 12.699 7.211 25.067 20.202 21.859l35.054-8.655c-13.276-15.303-28.8-28.99-46.235-40.353z" fill="#ffba7e"/><path d="m405.317 356.998c-15.566 15.566-36.447 24.661-58.446 25.456l-46.563 1.683-17.88 3.133-94.386 70v7.569c135.937 44.057 266.063-49.679 285.271-175.836z" fill="#ffaa5b"/><path d="m345.021 445.19c-38.383 0-74.643-9.066-106.779-25.151l-50.201 37.231v7.569c65.771 21.316 130.18 10.374 181.325-20.889-8.006.811-16.125 1.24-24.345 1.24z" fill="#ff9838"/><path d="m461.733 9.543-34.271 33.825c6.776.997 12.34 3.499 16.477 7.636 31.462 31.462-31.023 144.957-139.564 253.498s-222.037 171.026-253.499 139.564c-5.032-5.032-7.65-12.171-8.071-21.044l-34.341 33.894c2.016 12.809 6.935 23.499 14.994 31.558 48.431 48.431 191.76-16.377 320.135-144.753s193.184-271.705 144.754-320.135c-6.999-6.999-15.984-11.625-26.614-14.043z" fill="#ffe02f"/><path d="m458.569 30.577c-3.051-3.051-6.533-5.589-10.384-7.664l-20.724 20.454c6.776.997 12.34 3.499 16.477 7.636 31.462 31.462-31.023 144.957-139.564 253.498-108.54 108.542-222.036 171.027-253.498 139.565-5.032-5.032-7.65-12.171-8.071-21.044l-21.886 21.602c2.332 5.372 5.474 10.11 9.484 14.121 44.241 44.241 175.954-15.743 294.189-133.978 118.235-118.236 178.219-249.949 133.977-294.19z" fill="#fbc700"/></g><path d="m189.019 472.934c174.066 53.811 337.682-109.852 283.955-283.926 7.132-12.897 13.429-25.601 18.791-38.006 1.643-3.802-.107-8.217-3.909-9.86-3.802-1.641-8.216.107-9.86 3.909-5.489 12.701-11.996 25.734-19.409 38.98-.094.143-.199.277-.284.428-109.648 194.856-364.522 363.563-429.415 298.68-23.417-23.417-16.926-75.553 17.028-141.098 2.221 5.43 5.047 11.58 7.525 16.481-21.078 43.432-23.767 74.791-7.742 90.815 55.935 55.935 283.769-125.151 378.27-280.724 20.076-33.05 52.685-95.659 25.399-122.945-16.026-16.026-47.384-13.337-90.814 7.742-5.065-2.562-11.453-5.47-16.482-7.525 65.544-33.955 117.681-40.446 141.097-17.028 20.125 20.125 14.707 56.837 6.617 84.093-1.178 3.971 1.086 8.145 5.057 9.324 3.971 1.178 8.146-1.084 9.324-5.056 13.262-44.685 9.669-78.907-10.391-98.967-30.242-30.242-92.362-22.628-170.716 20.815-171.834-53.071-338.523 107.057-283.963 283.965-43.442 78.352-51.057 140.473-20.815 170.714 39.715 39.716 121.585 6.399 170.737-20.811zm273.41-265.73c6.308 26.211 7.578 52.567 4.099 78.071l-66.389 66.388c-14.272 14.273-33.242 22.535-53.413 23.264l-25.748.931c52.784-48.354 104.518-107.686 141.451-168.654zm-159.006 184.298 43.844-1.585c23.973-.866 46.517-10.685 63.479-27.648l50.069-50.069c-28.475 102.812-136.054 178.51-253.618 150.19 33.507-20.309 66.222-44.889 96.226-70.888zm-247.117 47.229c-9.808-9.808-7.479-32.801 6.185-64.026 14.523 23.612 33.059 43.877 53.236 59.779-28.721 11.811-50.104 13.561-59.421 4.247zm6.899-94.53 53.654-53.653c8.596-8.596 19.327-14.876 31.033-18.16 13.535-3.796 26 8.662 22.201 22.201-3.284 11.707-9.563 22.438-18.16 31.035l-62.041 62.041c-10.722-13.484-19.517-27.756-26.687-43.464zm375.557-287.926c9.315 9.315 7.564 30.699-4.248 59.421-16.22-20.582-36.434-38.879-59.778-53.237 31.225-13.664 54.217-15.993 64.026-6.184zm-64.954 45.172 5.874-17.677c9.937 7.163 19.221 15.074 28.178 24.27l-22.765 5.621c-3.406.84-6.866-.195-9.249-2.774-2.384-2.579-3.145-6.108-2.038-9.44zm-7.068-26.298-7.166 21.568c-2.856 8.596-.892 17.698 5.256 24.35s15.068 9.327 23.861 7.156l30.551-7.543c2.853 3.432 5.61 6.946 8.243 10.555-3.322 6.764-6.552 12.78-10.147 19.092l-84.738 23.629c-15.918 4.439-30.508 12.961-42.191 24.645l-9.907 9.908c-2.929 2.929-2.929 7.678.001 10.606 2.928 2.93 7.677 2.929 10.606 0l9.907-9.908c9.861-9.862 22.177-17.056 35.613-20.802l69.419-19.357c-58.547 92.232-175.454 207.541-269.67 255.844l67.258-67.258c11.954-11.955 20.575-26.908 24.932-43.243l6.283-23.562c3.678-13.79 10.955-26.412 21.045-36.502l10.34-10.34c2.929-2.929 2.929-7.678-.001-10.606-2.928-2.93-7.677-2.929-10.606 0l-10.34 10.34c-11.953 11.953-20.574 26.906-24.932 43.243l-6.283 23.562c-3.677 13.788-10.953 26.41-21.045 36.501l-72.244 72.244c-7.487-6.219-14.545-12.974-21.123-20.159l62.88-62.881c10.412-10.412 18.018-23.41 21.996-37.589 6.958-24.809-15.88-47.658-40.695-40.695-14.179 3.977-27.177 11.583-37.59 21.996l-49.233 49.23c-3.861-10.517-6.76-20.742-9.016-31.847l38.994-38.993c19.482-19.483 45.362-31.071 72.873-32.629 31.194-1.765 60.541-14.905 82.634-36.998l62.06-62.06c18.028-18.029 30.04-40.647 34.872-65.597 9.893 4.235 18.692 8.816 27.303 14.1zm-82.837-29.487c-5.174 13.248-13.097 25.398-23.21 35.511l-56.49 56.49c-17.64 17.64-40.917 28.274-65.545 29.944-28.246 1.916-54.93 14.098-75.136 34.303l-16.509 16.509c19.41-106.873 121.591-188.762 236.89-172.757zm-239.935 197.017 30.162-30.162c17.64-17.64 40.917-28.274 65.544-29.944 28.247-1.916 54.931-14.098 75.137-34.304l56.49-56.49c12.297-12.297 21.762-27.233 27.638-43.512 9.882 2.095 18.191 4.515 26.247 7.29-3.906 23.043-14.696 43.953-31.227 60.483l-62.06 62.06c-19.483 19.483-45.364 31.071-72.874 32.628-31.195 1.766-60.541 14.906-82.633 36.998l-31.343 31.342c-1.423-12.203-1.776-24.366-1.081-36.389z"/></g></svg>