<?xml version="1.0" encoding="UTF-8" standalone="no"?>
<svg
   xmlns:dc="http://purl.org/dc/elements/1.1/"
   xmlns:cc="http://creativecommons.org/ns#"
   xmlns:rdf="http://www.w3.org/1999/02/22-rdf-syntax-ns#"
   xmlns:svg="http://www.w3.org/2000/svg"
   xmlns="http://www.w3.org/2000/svg"
   xmlns:sodipodi="http://sodipodi.sourceforge.net/DTD/sodipodi-0.dtd"
   xmlns:inkscape="http://www.inkscape.org/namespaces/inkscape"
   height="512"
   width="512"
   inkscape:version="1.0 (4035a4fb49, 2020-05-01)"
   sodipodi:docname="uranus.svg"
   xml:space="preserve"
   viewBox="0 0 511.99999 511.99999"
   y="0px"
   x="0px"
   id="Capa_1"
   version="1.1"><metadata
   id="metadata58"><rdf:RDF><cc:Work
       rdf:about=""><dc:format>image/svg+xml</dc:format><dc:type
         rdf:resource="http://purl.org/dc/dcmitype/StillImage" /><dc:title></dc:title></cc:Work></rdf:RDF></metadata><defs
   id="defs56" /><sodipodi:namedview
   inkscape:current-layer="Capa_1"
   inkscape:window-maximized="1"
   inkscape:window-y="-8"
   inkscape:window-x="76"
   inkscape:cy="323.03644"
   inkscape:cx="-402.9977"
   inkscape:zoom="0.36024979"
   showgrid="false"
   id="namedview54"
   inkscape:window-height="1052"
   inkscape:window-width="1836"
   inkscape:pageshadow="2"
   inkscape:pageopacity="0"
   guidetolerance="10"
   gridtolerance="10"
   objecttolerance="10"
   borderopacity="1"
   bordercolor="#666666"
   pagecolor="#ffffff" />
<g
   transform="matrix(0.82899866,0,0,0.82899866,0.0012397,-2.6133662e-5)"
   id="g21">
	<g
   id="g19">
		<g
   id="filled_outline_34_">
			<path
   id="path2"
   d="M 604.945,272.235 C 595.764,197.625 558.722,129.252 501.249,80.806 l -1.029,1.595 c -117.272,160.48 -261.552,299.335 -426.416,410.37 48.652,62.197 120,102.554 198.377,112.188 91.746,-128.563 204.201,-240.997 332.764,-332.724 z"
   style="fill:#2683c9" />
			<path
   id="path4"
   d="m 500.22,82.401 1.029,-1.595 C 471.71,55.816 437.58,36.826 400.774,24.887 296.213,167.252 167.836,290.473 21.302,389.116 31.811,426.797 49.647,462.038 73.793,492.812 238.658,381.767 382.958,242.892 500.22,82.401 Z"
   style="fill:#2a90de" />
			<path
   id="path6"
   d="M 400.815,24.887 C 371.09,15.243 340.028,10.344 308.78,10.354 c -8.316,0 -16.53,0.432 -24.702,1.101 -78.922,98.365 -170.175,186.159 -271.525,261.222 -1.472,12.001 -2.223,24.074 -2.254,36.157 0,27.141 3.695,54.149 11.003,80.281 C 167.846,290.473 296.244,167.252 400.815,24.887 Z"
   style="fill:#69ccd7" />
			<path
   id="path8"
   d="M 284.078,11.456 C 143.113,23.189 29.732,132.258 12.553,272.678 113.903,197.615 205.156,109.821 284.078,11.456 Z"
   style="fill:#2a90de" />
			<path
   id="path10"
   d="m 599.099,378.083 -2.131,1.225 C 509.987,439.251 434.244,514.046 373.221,600.266 484.822,575.502 572.504,489.251 599.099,378.083 Z"
   style="fill:#2379ba" />
			<path
   id="path12"
   d="m 596.969,379.308 2.131,-1.225 c 8.316,-34.644 10.303,-70.503 5.846,-105.848 C 476.372,363.972 363.917,476.427 272.18,605 c 33.697,4.251 67.879,2.645 101.041,-4.734 61.034,-86.22 136.777,-161.015 223.748,-220.958 z"
   style="fill:#2379ba" />
			<path
   id="path14"
   d="m 493.983,74.857 c 0,0.803 0.062,1.595 0.062,2.398 C 494.024,302.454 330.313,494.233 107.914,529.608 229.436,640.993 418.24,632.78 529.625,511.267 641.01,389.754 632.807,200.929 511.284,89.544 505.706,84.429 499.942,79.53 493.983,74.857 Z"
   style="fill:#2379ba" />
			<path
   id="path16"
   d="M 604.245,13.37 C 575.755,-15.119 512.179,12.011 462.209,41.046 314.451,-43.825 125.873,7.153 41.002,154.912 c -54.653,95.154 -54.663,212.179 -0.01,307.332 -28.819,49.661 -56.218,113.495 -27.667,142.036 9.16,8.46 21.367,12.835 33.821,12.094 27.79,0 65.542,-14.873 108.246,-39.729 67.529,38.875 147.305,50.649 223.192,32.936 l 0.381,0.268 0.319,-0.432 C 545.157,570.666 648.215,404.783 609.464,238.91 602.63,209.649 591.555,181.54 576.59,155.479 614.044,91.088 628.803,37.917 604.245,13.37 Z m -14.553,14.554 c 14.214,14.214 4.827,53.521 -25.391,107.762 C 542.296,103.337 514.393,75.424 482.054,53.408 544.879,18.588 578.782,17.003 589.692,27.924 Z M 259.582,24.939 C 190.561,107.917 112.544,182.99 26.973,248.758 51.716,133.75 143.72,45.235 259.582,24.939 Z M 20.592,308.835 c 0.01,-10.22 0.556,-20.43 1.636,-30.599 99.404,-74.095 189.113,-160.387 266.996,-256.848 6.484,-0.443 12.989,-0.741 19.556,-0.741 25.268,0 50.423,3.335 74.826,9.912 C 285.303,163.867 164.933,279.389 27.683,372.124 22.99,351.353 20.612,330.13 20.592,308.835 Z m 12.69,84.583 C 176.995,297.348 302.687,176.742 404.602,37.114 434.44,47.695 462.322,63.113 487.147,82.761 373.468,236.963 234.52,370.816 76.171,478.66 57.233,452.837 42.731,424.028 33.282,393.418 Z M 27.869,589.747 C 16.99,578.868 18.534,544.965 53.353,482.109 c 22.016,32.339 49.929,60.242 82.278,82.247 C 81.317,594.574 42.083,603.95 27.869,589.747 Z M 88.923,494.871 C 248.333,386.111 388.279,251.28 502.906,96.039 c 19.195,17.528 35.951,37.557 49.805,59.552 C 501.805,235.1 441.933,308.496 374.281,374.336 308.43,441.988 235.035,501.859 155.536,552.766 130.515,536.977 108.057,517.453 88.923,494.871 Z M 399.055,582.46 C 450.713,514.375 511.953,454.134 580.881,403.598 551.229,488.15 484.081,554.197 399.055,582.46 Z M 596.969,308.835 c -0.021,21.12 -2.357,42.178 -6.978,62.784 -86.405,59.696 -161.797,133.946 -222.79,219.445 -19.216,3.973 -38.792,5.97 -58.42,5.959 -5.856,0 -11.661,-0.226 -17.435,-0.576 85.467,-116.706 188.34,-219.579 305.046,-305.047 0.35,5.774 0.577,11.579 0.577,17.435 z m -2.995,-41.262 c -125.753,90.46 -235.995,200.703 -326.456,326.456 -32.082,-4.632 -63.144,-14.677 -91.86,-29.714 77.029,-50.824 148.479,-109.625 213.177,-175.424 65.8,-64.698 124.6,-136.159 175.414,-213.187 15.048,28.714 25.103,59.777 29.725,91.869 z" />
		</g>
	</g>
</g>
<g
   id="g23">
</g>
<g
   id="g25">
</g>
<g
   id="g27">
</g>
<g
   id="g29">
</g>
<g
   id="g31">
</g>
<g
   id="g33">
</g>
<g
   id="g35">
</g>
<g
   id="g37">
</g>
<g
   id="g39">
</g>
<g
   id="g41">
</g>
<g
   id="g43">
</g>
<g
   id="g45">
</g>
<g
   id="g47">
</g>
<g
   id="g49">
</g>
<g
   id="g51">
</g>
</svg>
