<?xml version="1.0" encoding="UTF-8" standalone="no"?>
<svg
   xmlns:dc="http://purl.org/dc/elements/1.1/"
   xmlns:cc="http://creativecommons.org/ns#"
   xmlns:rdf="http://www.w3.org/1999/02/22-rdf-syntax-ns#"
   xmlns:svg="http://www.w3.org/2000/svg"
   xmlns="http://www.w3.org/2000/svg"
   xmlns:sodipodi="http://sodipodi.sourceforge.net/DTD/sodipodi-0.dtd"
   xmlns:inkscape="http://www.inkscape.org/namespaces/inkscape"
   inkscape:version="1.0 (4035a4fb49, 2020-05-01)"
   height="512"
   width="512"
   sodipodi:docname="venus.svg"
   xml:space="preserve"
   viewBox="0 0 512 512"
   y="0px"
   x="0px"
   id="Capa_1"
   version="1.1"><metadata
   id="metadata52"><rdf:RDF><cc:Work
       rdf:about=""><dc:format>image/svg+xml</dc:format><dc:type
         rdf:resource="http://purl.org/dc/dcmitype/StillImage" /><dc:title></dc:title></cc:Work></rdf:RDF></metadata><defs
   id="defs50" /><sodipodi:namedview
   inkscape:current-layer="Capa_1"
   inkscape:window-maximized="1"
   inkscape:window-y="-8"
   inkscape:window-x="76"
   inkscape:cy="308.797"
   inkscape:cx="308.797"
   inkscape:zoom="1.4410762"
   showgrid="false"
   id="namedview48"
   inkscape:window-height="1052"
   inkscape:window-width="1836"
   inkscape:pageshadow="2"
   inkscape:pageopacity="0"
   guidetolerance="10"
   gridtolerance="10"
   objecttolerance="10"
   borderopacity="1"
   bordercolor="#666666"
   pagecolor="#ffffff" />
<g
   transform="matrix(0.82902243,0,0,0.82902243,-8.7988607e-5,0.00410077)"
   id="g15">
	<g
   id="g13">
		<g
   id="filled_outline_35_">
			<circle
   id="circle2"
   r="298.48099"
   cy="308.797"
   cx="308.797"
   style="fill:#f06529" />
			<path
   id="path4"
   d="m 493.999,74.819 c 0,0.803 0.062,1.595 0.062,2.398 C 494.04,302.416 330.339,494.195 107.93,529.57 229.453,640.965 418.257,632.752 529.653,511.229 641.049,389.706 632.824,200.902 511.312,89.517 505.722,84.401 499.948,79.502 493.999,74.819 Z"
   style="fill:#e0561a" />
			<path
   id="path6"
   d="M 308.797,0.024 C 198.555,0.106 96.701,58.948 41.564,154.411 h -0.371 v 0.648 c -77.883,135.13 -42.518,307.137 82.34,400.592 v 0.165 h 0.216 c 109.625,82.34 260.471,82.34 370.096,0 h 0.216 v -0.165 C 630.456,453.396 658.133,259.939 555.888,123.543 497.571,45.753 406.019,-0.007 308.797,0.024 Z m -5.846,20.729 c -5.733,3.921 -11.239,8.172 -16.468,12.742 -27.934,24.856 -64.019,38.586 -101.411,38.576 H 144.715 C 191.226,39.691 246.291,21.834 302.951,20.753 Z m 5.846,576.233 c -52.234,0.051 -103.491,-14.193 -148.211,-41.17 h 296.525 c -44.751,27.007 -96.039,41.242 -148.314,41.17 z M 594.001,349.967 H 394.41 c -37.362,0.072 -71.296,21.789 -87.012,55.682 -22.067,47.551 -69.68,78.017 -122.11,78.12 v 20.585 c 60.458,-0.113 115.358,-35.252 140.801,-90.09 12.341,-26.616 38.988,-43.661 68.321,-43.712 H 590.255 C 575.856,435.775 539.266,493.969 486.744,535.231 H 130.851 C 80.84,495.955 45.197,441.261 29.45,379.65 53.184,379.496 75.323,367.67 88.642,348.011 l 14.873,-22.046 c 16.067,-23.693 42.858,-37.845 71.481,-37.753 45.132,-0.268 81.969,36.054 82.34,81.187 -0.237,16.972 -7.647,33.049 -20.389,44.258 -15.346,15.953 -38.247,22.118 -59.521,16.025 -16.663,-5.63 -28.963,-19.844 -32.143,-37.135 -2.769,-16.293 5.187,-32.545 19.761,-40.336 9.304,-5.856 21.058,-6.196 30.692,-0.895 8.337,4.837 13.504,13.72 13.576,23.354 h 20.585 c -0.072,-16.972 -9.129,-32.637 -23.796,-41.17 -15.933,-9.099 -35.55,-8.8 -51.195,0.772 -22.221,12.052 -34.243,36.97 -29.848,61.868 4.498,24.65 22.005,44.937 45.74,52.985 7.318,2.501 14.996,3.777 22.726,3.767 21.388,-0.607 41.787,-9.171 57.205,-24.012 17.055,-15.099 26.935,-36.703 27.193,-59.48 -0.381,-56.495 -46.429,-102.019 -102.924,-101.772 -35.457,-0.082 -68.63,17.466 -88.515,46.82 L 71.59,336.484 C 61.967,350.698 45.9,359.179 28.732,359.127 H 25.099 C 17.822,318.472 19.407,276.736 29.731,236.75 h 151.443 c 40.315,0.051 79.416,13.771 110.932,38.916 35.149,28.047 78.768,43.352 123.736,43.424 h 180.89 c -0.364,10.333 -1.27,20.646 -2.731,30.877 z M 483.686,198.153 c 10.169,-14.512 26.781,-23.158 44.505,-23.158 h 35.735 c 20.101,38.175 31.32,80.394 32.802,123.509 H 415.838 C 375.523,298.453 336.422,284.733 304.906,259.588 269.757,231.541 226.138,216.236 181.17,216.164 H 35.965 C 40.782,202.002 46.7,188.23 53.668,174.994 h 145.69 c 39.791,0.103 77.43,-18.074 102.08,-49.311 21.666,-27.44 54.735,-43.414 89.699,-43.321 V 61.779 c -41.252,-0.103 -80.26,18.743 -105.817,51.112 -20.76,26.297 -52.45,41.602 -85.962,41.52 H 65.638 c 14.626,-22.962 32.421,-43.753 52.841,-61.755 h 66.592 c 42.446,0.01 83.41,-15.562 115.131,-43.763 12.372,-10.992 26.452,-19.885 41.684,-26.328 86.302,10.076 163.475,58.502 210.069,131.846 H 528.19 c -24.753,-0.01 -47.922,12.227 -61.868,32.678 -0.268,0.381 -0.504,0.782 -0.71,1.204 -17.899,36.106 -54.766,58.893 -95.061,58.749 v 20.585 c 47.84,0.165 91.645,-26.739 113.135,-69.474 z" />
			<path
   id="path8"
   d="m 432.306,164.703 c 0,-28.417 -23.045,-51.462 -51.462,-51.462 -28.417,0 -51.462,23.045 -51.462,51.462 0,28.417 23.045,51.462 51.462,51.462 28.407,-0.031 51.431,-23.055 51.462,-51.462 z m -82.339,0 c 0,-17.055 13.823,-30.877 30.877,-30.877 17.055,0 30.877,13.823 30.877,30.877 0,17.054 -13.823,30.877 -30.877,30.877 -17.054,0 -30.877,-13.822 -30.877,-30.877 z" />
			<path
   id="path10"
   d="m 391.137,483.769 c 22.736,0 41.17,-18.434 41.17,-41.17 0,-22.736 -18.434,-41.17 -41.17,-41.17 -22.736,0 -41.17,18.434 -41.17,41.17 0,22.736 18.434,41.17 41.17,41.17 z m 0,-61.755 c 11.373,0 20.585,9.212 20.585,20.585 0,11.373 -9.212,20.585 -20.585,20.585 -11.373,0 -20.585,-9.212 -20.585,-20.585 0,-11.373 9.222,-20.585 20.585,-20.585 z" />
		</g>
	</g>
</g>
<g
   id="g17">
</g>
<g
   id="g19">
</g>
<g
   id="g21">
</g>
<g
   id="g23">
</g>
<g
   id="g25">
</g>
<g
   id="g27">
</g>
<g
   id="g29">
</g>
<g
   id="g31">
</g>
<g
   id="g33">
</g>
<g
   id="g35">
</g>
<g
   id="g37">
</g>
<g
   id="g39">
</g>
<g
   id="g41">
</g>
<g
   id="g43">
</g>
<g
   id="g45">
</g>
</svg>
